<svg xmlns="http://www.w3.org/2000/svg" fill="none" viewBox="0 0 1008 1160">
    <g id="bottom-layer">
      <g id="right-corner" filter="url(#filter0_dd_309_3368)">
        <mask id="mask0_309_3368" width="334" height="368" x="669" y="586" maskUnits="userSpaceOnUse" style="mask-type:alpha">
          <path id="Polygon" fill="white" d="M806.073 594.852c18.574-10.734 41.466-10.734 60.041 0l106.667 61.64c18.553 10.721 29.979 30.523 29.979 51.95v123.376c0 21.427-11.426 41.228-29.979 51.949l-106.667 61.641c-18.575 10.733-41.466 10.733-60.041 0l-106.667-61.641c-18.553-10.721-29.98-30.522-29.98-51.949V708.442c0-21.427 11.427-41.228 29.98-51.95l106.667-61.64Z"/>
        </mask>
        <g mask="url(#mask0_309_3368)">
          <path id="top" fill="#FF6B4A" d="M821.083 586.178c9.287-5.367 20.733-5.367 30.021 0l136.667 78.977c9.276 5.36 14.989 15.261 14.989 25.975v158c0 10.714-5.713 20.615-14.989 25.975l-136.667 78.977c-9.288 5.367-20.734 5.367-30.021 0l-136.667-78.977c-9.276-5.36-14.99-15.261-14.99-25.975v-158c0-10.714 5.714-20.615 14.99-25.975l136.667-78.977Z"/>
          <path id="top-right" fill="#FF6B4A" d="m987.771 665.155-151.677-87.651v333.267c0 23.099 25.01 37.532 45.01 25.975l106.667-61.641c9.276-5.36 14.989-15.261 14.989-25.975v-158c0-10.714-5.713-20.615-14.989-25.975Z"/>
          <path id="top-left" fill="#FF6B4A" d="m684.416 875.105 106.667 61.641c20 11.557 45.01-2.876 45.01-25.975V577.504l-151.677 87.651c-9.276 5.36-14.99 15.261-14.99 25.975v158c0 10.714 5.714 20.615 14.99 25.975Z"/>
          <path id="right" fill="#66BEEC" d="M1002.76 866.63V708.661c0-15.4-16.674-25.022-30.007-17.317l-106.681 61.648c-18.553 10.721-29.98 30.523-29.98 51.95v123.344c0 15.4 16.674 25.022 30.007 17.317l136.661-78.973Z"/>
          <path id="left" fill="#F7EC61" d="M669.426 855.088c0 7.143 3.809 13.743 9.993 17.317l126.668 73.198c13.333 7.705 30.006-1.917 30.006-17.317V804.942c0-21.427-11.427-41.229-29.979-51.95l-106.681-61.648c-13.333-7.705-30.007 1.917-30.007 17.317v146.427Z"/>
        </g>
      </g>
      <g id="front-right" filter="url(#filter1_ddd_309_3368)">
        <mask id="mask1_309_3368" width="334" height="368" x="503" y="682" maskUnits="userSpaceOnUse" style="mask-type:alpha">
          <path id="Polygon_2" fill="white" d="M640.154 690.604c18.575-10.734 41.467-10.734 60.041 0l106.667 61.64c18.553 10.721 29.98 30.523 29.98 51.95V927.57c0 21.427-11.427 41.228-29.98 51.949l-106.667 61.641c-18.574 10.73-41.466 10.73-60.041 0l-106.667-61.641c-18.553-10.721-29.98-30.522-29.98-51.949V804.194c0-21.427 11.427-41.229 29.98-51.95l106.667-61.64Z"/>
        </mask>
        <g mask="url(#mask1_309_3368)">
          <path id="top" fill="#FF6B4A" d="M655.164 681.93c9.288-5.367 20.734-5.367 30.021 0l136.667 78.977c9.277 5.36 14.99 15.261 14.99 25.974v158.001c0 10.714-5.713 20.615-14.99 25.975l-136.667 78.973c-9.287 5.37-20.733 5.37-30.021 0l-136.667-78.973c-9.276-5.36-14.99-15.261-14.99-25.975V786.881c0-10.713 5.714-20.614 14.99-25.974l136.667-78.977Z"/>
          <path id="top-right" fill="#FF6B4A" d="m821.852 760.907-151.677-87.651v333.264c0 23.1 25.01 37.54 45.01 25.98l106.667-61.643c9.276-5.36 14.99-15.261 14.99-25.975V786.881c0-10.713-5.714-20.614-14.99-25.974Z"/>
          <path id="top-left" fill="#FF6B4A" d="m518.497 970.857 106.667 61.643c20 11.56 45.011-2.88 45.011-25.98V673.256l-151.678 87.651c-9.276 5.36-14.99 15.261-14.99 25.975v158c0 10.714 5.714 20.615 14.99 25.975Z"/>
          <path id="right" fill="#66BEEC" d="M836.841 962.382V804.413c0-15.4-16.674-25.022-30.007-17.317l-106.681 61.648c-18.553 10.721-29.98 30.523-29.98 51.95v123.346c0 15.4 16.674 25.02 30.007 17.31l136.661-78.968Z"/>
          <path id="left" fill="#F7EC61" d="M503.507 950.84c0 7.143 3.809 13.743 9.993 17.317l126.668 73.193c13.333 7.71 30.007-1.91 30.007-17.31V900.694c0-21.427-11.427-41.229-29.98-51.95l-106.681-61.648c-13.333-7.705-30.007 1.917-30.007 17.317V950.84Z"/>
        </g>
      </g>
      <g id="left-corner" filter="url(#filter2_dd_309_3368)">
        <mask id="mask2_309_3368" width="334" height="368" x="4" y="586" maskUnits="userSpaceOnUse" style="mask-type:alpha">
          <path id="Polygon_3" fill="white" d="M140.903 594.852c18.574-10.734 41.466-10.734 60.041 0l106.667 61.64c18.553 10.721 29.98 30.523 29.98 51.95v123.376c0 21.427-11.427 41.228-29.98 51.949l-106.667 61.641c-18.575 10.733-41.467 10.733-60.041 0L34.2352 883.767c-18.5525-10.721-29.97953-30.522-29.97953-51.949V708.442c0-21.427 11.42703-41.228 29.97953-51.95l106.6678-61.64Z"/>
        </mask>
        <g mask="url(#mask2_309_3368)">
          <path id="top" fill="#FF6B4A" d="M155.913 586.178c9.287-5.367 20.733-5.367 30.02 0l136.668 78.977c9.276 5.36 14.99 15.261 14.99 25.975v158c0 10.714-5.714 20.615-14.99 25.975l-136.668 78.977c-9.287 5.367-20.733 5.367-30.02 0L19.2455 875.105c-9.27632-5.36-14.98983-15.261-14.98983-25.975v-158c0-10.714 5.7135-20.615 14.98973-25.975l136.6676-78.977Z"/>
          <path id="top-right" fill="#FF6B4A" d="m322.601 665.155-151.678-87.651v333.267c0 23.099 25.01 37.532 45.01 25.975l106.668-61.641c9.276-5.36 14.99-15.261 14.99-25.975v-158c0-10.714-5.714-20.615-14.99-25.975Z"/>
          <path id="top-left" fill="#FF6B4A" d="m19.2455 875.105 106.6675 61.641c20 11.557 45.01-2.876 45.01-25.975V577.504L19.2454 665.155c-9.27623 5.36-14.98973 15.261-14.98973 25.975v158c0 10.714 5.71351 20.615 14.98983 25.975Z"/>
          <path id="right" fill="#66BEEC" d="M337.589 866.63V708.661c0-15.4-16.673-25.022-30.006-17.317l-106.681 61.648c-18.553 10.721-29.98 30.523-29.98 51.95v123.344c0 15.4 16.673 25.022 30.007 17.317l136.66-78.973Z"/>
          <path id="left" fill="#F7EC61" d="M4.25567 855.088c0 7.143 3.80901 13.743 9.99323 17.317l126.6671 73.198c13.334 7.705 30.007-1.917 30.007-17.317V804.942c0-21.427-11.427-41.229-29.979-51.95L34.2625 691.344c-13.3333-7.705-30.00683 1.917-30.00683 17.317v146.427Z"/>
        </g>
      </g>
      <g id="front-left" filter="url(#filter3_ddd_309_3368)">
        <mask id="mask3_309_3368" width="335" height="368" x="170" y="682" maskUnits="userSpaceOnUse" style="mask-type:alpha">
          <path id="Polygon_4" fill="white" d="M307.569 690.604c18.574-10.734 41.466-10.734 60.041 0l106.667 61.64c18.553 10.721 29.98 30.523 29.98 51.95V927.57c0 21.427-11.427 41.228-29.98 51.949L367.61 1041.16c-18.575 10.73-41.467 10.73-60.041 0l-106.667-61.641c-18.553-10.721-29.98-30.522-29.98-51.949V804.194c0-21.427 11.427-41.229 29.979-51.95l106.668-61.64Z"/>
        </mask>
        <g mask="url(#mask3_309_3368)">
          <path id="top" fill="#FF6B4A" d="M322.579 681.93c9.287-5.367 20.733-5.367 30.021 0l136.667 78.977c9.276 5.36 14.99 15.261 14.99 25.974v158.001c0 10.714-5.714 20.615-14.99 25.975L352.6 1049.83c-9.288 5.37-20.734 5.37-30.021 0l-136.667-78.973c-9.277-5.36-14.99-15.261-14.99-25.975V786.881c0-10.713 5.713-20.614 14.99-25.974l136.667-78.977Z"/>
          <path id="top-right" fill="#FF6B4A" d="m489.267 760.907-151.678-87.651v333.264c0 23.1 25.011 37.54 45.011 25.98l106.667-61.643c9.276-5.36 14.99-15.261 14.99-25.975V786.881c0-10.713-5.714-20.614-14.99-25.974Z"/>
          <path id="top-left" fill="#FF6B4A" d="m185.912 970.857 106.667 61.643c20 11.56 45.01-2.88 45.01-25.98V673.256l-151.677 87.651c-9.277 5.36-14.99 15.261-14.99 25.975v158c0 10.714 5.713 20.615 14.99 25.975Z"/>
          <path id="right" fill="#66BEEC" d="M504.256 962.382V804.413c0-15.4-16.674-25.022-30.007-17.317l-106.681 61.648c-18.553 10.721-29.98 30.523-29.98 51.95v123.346c0 15.4 16.674 25.02 30.007 17.31l136.661-78.968Z"/>
          <path id="left" fill="#F7EC61" d="M170.922 950.84c0 7.143 3.809 13.743 9.993 17.317l126.668 73.193c13.333 7.71 30.006-1.91 30.006-17.31V900.694c0-21.427-11.427-41.229-29.979-51.95l-106.681-61.648c-13.334-7.705-30.007 1.917-30.007 17.317V950.84Z"/>
        </g>
      </g>
      <g id="front-corner" filter="url(#filter4_ddd_309_3368)">
        <mask id="mask4_309_3368" width="334" height="367" x="337" y="779" maskUnits="userSpaceOnUse" style="mask-type:alpha">
          <path id="Polygon_5" fill="white" d="M474.235 787.104c18.575-10.734 41.467-10.734 60.041 0l106.668 61.64c18.552 10.721 29.979 30.523 29.979 51.95v123.376c0 21.43-11.427 41.23-29.979 51.95l-106.668 61.64c-18.574 10.73-41.466 10.73-60.041 0l-106.667-61.64c-18.553-10.72-29.98-30.52-29.98-51.95V900.694c0-21.427 11.427-41.229 29.98-51.95l106.667-61.64Z"/>
        </mask>
        <g mask="url(#mask4_309_3368)">
          <path id="top" fill="#FF6B4A" d="M489.245 778.43c9.288-5.367 20.734-5.367 30.021 0l136.667 78.977c9.277 5.36 14.99 15.261 14.99 25.974v157.999c0 10.72-5.713 20.62-14.99 25.98l-136.667 78.97c-9.287 5.37-20.733 5.37-30.021 0l-136.667-78.97c-9.276-5.36-14.99-15.26-14.99-25.98V883.381c0-10.713 5.714-20.614 14.99-25.974l136.667-78.977Z"/>
          <path id="top-right" fill="#FF6B4A" d="m655.933 857.407-151.677-87.651v333.264c0 23.1 25.01 37.54 45.01 25.98l106.667-61.64c9.277-5.36 14.99-15.26 14.99-25.98V883.382c0-10.714-5.713-20.615-14.99-25.975Z"/>
          <path id="top-left" fill="#FF6B4A" d="M352.578 1067.36 459.245 1129c20 11.56 45.011-2.88 45.011-25.98V769.756l-151.678 87.651c-9.276 5.36-14.99 15.261-14.99 25.975v157.998c0 10.72 5.714 20.62 14.99 25.98Z"/>
          <path id="right" fill="#66BEEC" d="M670.922 1058.88V900.913c0-15.4-16.674-25.022-30.007-17.317l-106.681 61.648c-18.552 10.721-29.979 30.523-29.979 51.95v123.346c0 15.4 16.673 25.02 30.006 17.31l136.661-78.97Z"/>
          <path id="left" fill="#F7EC61" d="M337.588 1047.34c0 7.14 3.809 13.74 9.993 17.32l126.668 73.19c13.333 7.71 30.007-1.91 30.007-17.31V997.194c0-21.427-11.427-41.229-29.98-51.95l-106.681-61.648c-13.333-7.705-30.007 1.917-30.007 17.317v146.427Z"/>
        </g>
      </g>
    </g>
    <g id="middle-layer">
      <g id="right-corner" filter="url(#filter5_dd_309_3368)">
        <mask id="mask5_309_3368" width="334" height="368" x="669" y="394" maskUnits="userSpaceOnUse" style="mask-type:alpha">
          <path id="Polygon_6" fill="white" d="M806.073 402.6c18.574-10.734 41.466-10.734 60.041 0l106.667 61.641c18.553 10.721 29.979 30.522 29.979 51.949v123.376c0 21.427-11.426 41.228-29.979 51.949l-106.667 61.641c-18.575 10.734-41.466 10.734-60.041 0l-106.667-61.641c-18.553-10.721-29.98-30.522-29.98-51.949V516.19c0-21.427 11.427-41.228 29.98-51.949L806.073 402.6Z"/>
        </mask>
        <g mask="url(#mask5_309_3368)">
          <path id="top" fill="#FF6B4A" d="M821.083 393.926c9.287-5.367 20.733-5.367 30.021 0l136.667 78.977c9.276 5.36 14.989 15.261 14.989 25.975v158c0 10.714-5.713 20.615-14.989 25.975L851.104 761.83c-9.288 5.367-20.734 5.367-30.021 0l-136.667-78.977c-9.276-5.36-14.99-15.261-14.99-25.975v-158c0-10.714 5.714-20.615 14.99-25.975l136.667-78.977Z"/>
          <path id="top-right" fill="#FF6B4A" d="m987.771 472.903-151.677-87.651v333.267c0 23.099 25.01 37.532 45.01 25.975l106.667-61.641c9.276-5.36 14.989-15.261 14.989-25.975v-158c0-10.714-5.713-20.615-14.989-25.975Z"/>
          <path id="top-left" fill="#FF6B4A" d="m684.416 682.853 106.667 61.641c20 11.557 45.01-2.876 45.01-25.975V385.252l-151.677 87.651c-9.276 5.36-14.99 15.261-14.99 25.975v158c0 10.714 5.714 20.615 14.99 25.975Z"/>
          <path id="right" fill="#66BEEC" d="M1002.76 674.378V516.409c0-15.4-16.674-25.022-30.007-17.317l-106.681 61.649c-18.553 10.721-29.98 30.522-29.98 51.949v123.344c0 15.4 16.674 25.022 30.007 17.317l136.661-78.973Z"/>
          <path id="left" fill="#F7EC61" d="M669.426 662.836c0 7.143 3.809 13.743 9.993 17.317l126.668 73.198c13.333 7.705 30.006-1.917 30.006-17.317V612.69c0-21.427-11.427-41.228-29.979-51.95l-106.681-61.648c-13.333-7.705-30.007 1.917-30.007 17.317v146.427Z"/>
        </g>
      </g>
      <g id="front-right" filter="url(#filter6_ddd_309_3368)">
        <mask id="mask6_309_3368" width="334" height="367" x="503" y="490" maskUnits="userSpaceOnUse" style="mask-type:alpha">
          <path id="Polygon_7" fill="white" d="M640.154 498.352c18.575-10.734 41.467-10.734 60.041 0l106.667 61.64c18.553 10.722 29.98 30.523 29.98 51.95v123.376c0 21.427-11.427 41.228-29.98 51.949l-106.667 61.641c-18.574 10.733-41.466 10.733-60.041 0l-106.667-61.641c-18.553-10.721-29.98-30.522-29.98-51.949V611.942c0-21.427 11.427-41.228 29.98-51.95l106.667-61.64Z"/>
        </mask>
        <g mask="url(#mask6_309_3368)">
          <path id="top" fill="#FF6B4A" d="M655.164 489.678c9.288-5.367 20.734-5.367 30.021 0l136.667 78.977c9.277 5.36 14.99 15.261 14.99 25.975v158c0 10.714-5.713 20.615-14.99 25.975l-136.667 78.977c-9.287 5.367-20.733 5.367-30.021 0l-136.667-78.977c-9.276-5.36-14.99-15.261-14.99-25.975v-158c0-10.714 5.714-20.615 14.99-25.975l136.667-78.977Z"/>
          <path id="top-right" fill="#FF6B4A" d="m821.852 568.655-151.677-87.651v333.267c0 23.099 25.01 37.532 45.01 25.975l106.667-61.641c9.276-5.36 14.99-15.261 14.99-25.975v-158c0-10.714-5.714-20.615-14.99-25.975Z"/>
          <path id="top-left" fill="#FF6B4A" d="m518.497 778.605 106.667 61.641c20 11.557 45.011-2.876 45.011-25.975V481.004l-151.678 87.651c-9.276 5.36-14.99 15.261-14.99 25.975v158c0 10.714 5.714 20.615 14.99 25.975Z"/>
          <path id="right" fill="#66BEEC" d="M836.841 770.13V612.161c0-15.4-16.674-25.022-30.007-17.317l-106.681 61.648c-18.553 10.722-29.98 30.523-29.98 51.95v123.344c0 15.4 16.674 25.022 30.007 17.317l136.661-78.973Z"/>
          <path id="left" fill="#F7EC61" d="M503.507 758.588c0 7.143 3.809 13.743 9.993 17.317l126.668 73.198c13.333 7.705 30.007-1.917 30.007-17.317V708.442c0-21.427-11.427-41.229-29.98-51.95l-106.681-61.648c-13.333-7.705-30.007 1.917-30.007 17.317v146.427Z"/>
        </g>
      </g>
      <g id="left-corner" filter="url(#filter7_dd_309_3368)">
        <mask id="mask7_309_3368" width="334" height="368" x="4" y="394" maskUnits="userSpaceOnUse" style="mask-type:alpha">
          <path id="Polygon_8" fill="white" d="M140.903 402.6c18.574-10.734 41.466-10.734 60.041 0l106.667 61.641c18.553 10.721 29.98 30.522 29.98 51.949v123.376c0 21.427-11.427 41.228-29.98 51.949l-106.667 61.641c-18.575 10.734-41.467 10.734-60.041 0L34.2352 691.515c-18.5525-10.721-29.97953-30.522-29.97953-51.949V516.19c0-21.427 11.42703-41.228 29.97953-51.949L140.903 402.6Z"/>
        </mask>
        <g mask="url(#mask7_309_3368)">
          <path id="top" fill="#FF6B4A" d="M155.913 393.926c9.287-5.367 20.733-5.367 30.02 0l136.668 78.977c9.276 5.36 14.99 15.261 14.99 25.975v158c0 10.714-5.714 20.615-14.99 25.975L185.933 761.83c-9.287 5.367-20.733 5.367-30.02 0L19.2455 682.853c-9.27632-5.36-14.98983-15.261-14.98983-25.975v-158c0-10.714 5.7135-20.615 14.98973-25.975l136.6676-78.977Z"/>
          <path id="top-right" fill="#FF6B4A" d="m322.601 472.903-151.678-87.651v333.267c0 23.099 25.01 37.532 45.01 25.975l106.668-61.641c9.276-5.36 14.99-15.261 14.99-25.975v-158c0-10.714-5.714-20.615-14.99-25.975Z"/>
          <path id="top-left" fill="#FF6B4A" d="m19.2455 682.853 106.6675 61.641c20 11.557 45.01-2.876 45.01-25.975V385.252L19.2454 472.903c-9.27623 5.36-14.98973 15.261-14.98973 25.975v158c0 10.714 5.71351 20.615 14.98983 25.975Z"/>
          <path id="right" fill="#66BEEC" d="M337.589 674.378V516.409c0-15.4-16.673-25.022-30.006-17.317l-106.681 61.649c-18.553 10.721-29.98 30.522-29.98 51.949v123.344c0 15.4 16.673 25.022 30.007 17.317l136.66-78.973Z"/>
          <path id="left" fill="#F7EC61" d="M4.25567 662.836c0 7.143 3.80901 13.743 9.99323 17.317l126.6671 73.198c13.334 7.705 30.007-1.917 30.007-17.317V612.69c0-21.427-11.427-41.228-29.979-51.95L34.2625 499.092c-13.3333-7.705-30.00683 1.917-30.00683 17.317v146.427Z"/>
        </g>
      </g>
      <g id="front-left" filter="url(#filter8_ddd_309_3368)">
        <mask id="mask8_309_3368" width="335" height="367" x="170" y="490" maskUnits="userSpaceOnUse" style="mask-type:alpha">
          <path id="Polygon_9" fill="white" d="M307.569 498.352c18.574-10.734 41.466-10.734 60.041 0l106.667 61.64c18.553 10.722 29.98 30.523 29.98 51.95v123.376c0 21.427-11.427 41.228-29.98 51.949L367.61 848.908c-18.575 10.733-41.467 10.733-60.041 0l-106.667-61.641c-18.553-10.721-29.98-30.522-29.98-51.949V611.942c0-21.427 11.427-41.228 29.979-51.95l106.668-61.64Z"/>
        </mask>
        <g mask="url(#mask8_309_3368)">
          <path id="top" fill="#FF6B4A" d="M322.579 489.678c9.287-5.367 20.733-5.367 30.021 0l136.667 78.977c9.276 5.36 14.99 15.261 14.99 25.975v158c0 10.714-5.714 20.615-14.99 25.975L352.6 857.582c-9.288 5.367-20.734 5.367-30.021 0l-136.667-78.977c-9.277-5.36-14.99-15.261-14.99-25.975v-158c0-10.714 5.713-20.615 14.99-25.975l136.667-78.977Z"/>
          <path id="top-right" fill="#FF6B4A" d="m489.267 568.655-151.678-87.651v333.267c0 23.099 25.011 37.532 45.011 25.975l106.667-61.641c9.276-5.36 14.99-15.261 14.99-25.975v-158c0-10.714-5.714-20.615-14.99-25.975Z"/>
          <path id="top-left" fill="#FF6B4A" d="m185.912 778.605 106.667 61.641c20 11.557 45.01-2.876 45.01-25.975V481.004l-151.677 87.651c-9.277 5.36-14.99 15.261-14.99 25.975v158c0 10.714 5.713 20.615 14.99 25.975Z"/>
          <path id="right" fill="#66BEEC" d="M504.256 770.13V612.161c0-15.4-16.674-25.022-30.007-17.317l-106.681 61.648c-18.553 10.722-29.98 30.523-29.98 51.95v123.344c0 15.4 16.674 25.022 30.007 17.317l136.661-78.973Z"/>
          <path id="left" fill="#F7EC61" d="M170.922 758.588c0 7.143 3.809 13.743 9.993 17.317l126.668 73.198c13.333 7.705 30.006-1.917 30.006-17.317V708.442c0-21.427-11.427-41.228-29.979-51.95l-106.681-61.648c-13.334-7.705-30.007 1.917-30.007 17.317v146.427Z"/>
        </g>
      </g>
      <g id="front-corner" filter="url(#filter9_ddd_309_3368)">
        <mask id="mask9_309_3368" width="334" height="368" x="337" y="586" maskUnits="userSpaceOnUse" style="mask-type:alpha">
          <path id="Polygon_10" fill="white" d="M474.235 594.852c18.575-10.734 41.467-10.734 60.041 0l106.668 61.64c18.552 10.721 29.979 30.523 29.979 51.95v123.376c0 21.427-11.427 41.228-29.979 51.949l-106.668 61.641c-18.574 10.733-41.466 10.733-60.041 0l-106.667-61.641c-18.553-10.721-29.98-30.522-29.98-51.949V708.442c0-21.427 11.427-41.228 29.98-51.95l106.667-61.64Z"/>
        </mask>
        <g mask="url(#mask9_309_3368)">
          <path id="top" fill="#FF6B4A" d="M489.245 586.178c9.288-5.367 20.734-5.367 30.021 0l136.667 78.977c9.277 5.36 14.99 15.261 14.99 25.975v158c0 10.714-5.713 20.615-14.99 25.975l-136.667 78.977c-9.287 5.367-20.733 5.367-30.021 0l-136.667-78.977c-9.276-5.36-14.99-15.261-14.99-25.975v-158c0-10.714 5.714-20.615 14.99-25.975l136.667-78.977Z"/>
          <path id="top-right" fill="#FF6B4A" d="m655.933 665.155-151.677-87.651v333.267c0 23.099 25.01 37.532 45.01 25.975l106.667-61.641c9.277-5.36 14.99-15.261 14.99-25.975v-158c0-10.714-5.713-20.615-14.99-25.975Z"/>
          <path id="top-left" fill="#FF6B4A" d="m352.578 875.105 106.667 61.641c20 11.557 45.011-2.876 45.011-25.975V577.504l-151.678 87.651c-9.276 5.36-14.99 15.261-14.99 25.975v158c0 10.714 5.714 20.615 14.99 25.975Z"/>
          <path id="right" fill="#66BEEC" d="M670.922 866.63V708.661c0-15.4-16.674-25.022-30.007-17.317l-106.681 61.648c-18.552 10.721-29.979 30.523-29.979 51.95v123.344c0 15.4 16.673 25.022 30.006 17.317l136.661-78.973Z"/>
          <path id="left" fill="#F7EC61" d="M337.588 855.088c0 7.143 3.809 13.743 9.993 17.317l126.668 73.198c13.333 7.705 30.007-1.917 30.007-17.317V804.942c0-21.427-11.427-41.229-29.98-51.95l-106.681-61.648c-13.333-7.705-30.007 1.917-30.007 17.317v146.427Z"/>
        </g>
      </g>
    </g>
    <g id="top-layer">
      <g id="back-corner" filter="url(#filter10_d_309_3368)">
        <mask id="mask10_309_3368" width="334" height="367" x="338" y="10" maskUnits="userSpaceOnUse" style="mask-type:alpha">
          <path id="Polygon_11" fill="white" d="M474.983 18.0961c18.574-10.73368 41.466-10.7337 60.041 0l106.667 61.6405c18.553 10.721 29.98 30.5224 29.98 51.9494v123.376c0 21.427-11.427 41.228-29.98 51.949l-106.667 61.641c-18.575 10.734-41.467 10.734-60.041 0l-106.668-61.641c-18.552-10.721-29.979-30.522-29.979-51.949V131.686c0-21.427 11.427-41.2284 29.979-51.9494l106.668-61.6405Z"/>
        </mask>
        <g mask="url(#mask10_309_3368)">
          <path id="top" fill="#FF6B4A" d="M489.993 9.42209c9.287-5.36686 20.733-5.36687 30.02-.00001L656.681 88.3988c9.276 5.3605 14.99 15.2612 14.99 25.9752v158c0 10.714-5.714 20.615-14.99 25.975l-136.668 78.977c-9.287 5.367-20.733 5.367-30.02 0l-136.668-78.977c-9.276-5.36-14.989-15.261-14.989-25.975v-158c0-10.714 5.713-20.6147 14.989-25.9752L489.993 9.42209Z"/>
          <path id="top-right" fill="#FF6B4A" d="M656.681 88.3988 505.003.748047V334.015c0 23.099 25.01 37.532 45.01 25.975l106.668-61.641c9.276-5.36 14.99-15.261 14.99-25.975v-158c0-10.714-5.714-20.6147-14.99-25.9752Z"/>
          <path id="top-left" fill="#FF6B4A" d="m353.325 298.349 106.668 61.641c20 11.557 45.01-2.876 45.01-25.975V.748047L353.325 88.3988c-9.276 5.3605-14.989 15.2612-14.989 25.9752v158c0 10.714 5.713 20.615 14.989 25.975Z"/>
          <path id="right" fill="#66BEEC" d="M671.669 289.874V131.905c0-15.4-16.673-25.022-30.006-17.317l-106.681 61.649c-18.553 10.721-29.98 30.522-29.98 51.949V351.53c0 15.4 16.673 25.022 30.007 17.317l136.66-78.973Z"/>
          <path id="left" fill="#F7EC61" d="M338.336 278.332c0 7.143 3.809 13.743 9.993 17.317l126.667 73.198c13.334 7.705 30.007-1.917 30.007-17.317V228.186c0-21.427-11.427-41.228-29.979-51.949l-106.682-61.649c-13.333-7.705-30.006 1.917-30.006 17.317v146.427Z"/>
        </g>
      </g>
      <g id="back-left" filter="url(#filter11_dd_309_3368)">
        <mask id="mask11_309_3368" width="335" height="368" x="171" y="106" maskUnits="userSpaceOnUse" style="mask-type:alpha">
          <path id="Polygon_12" fill="white" d="M308.316 114.596c18.575-10.734 41.467-10.734 60.041 0l106.668 61.641c18.552 10.721 29.979 30.522 29.979 51.949v123.376c0 21.427-11.427 41.228-29.979 51.949l-106.668 61.641c-18.574 10.734-41.466 10.734-60.041 0l-106.667-61.641c-18.553-10.721-29.98-30.522-29.98-51.949V228.186c0-21.427 11.427-41.228 29.98-51.949l106.667-61.641Z"/>
        </mask>
        <g mask="url(#mask11_309_3368)">
          <path id="top" fill="#FF6B4A" d="M323.327 105.922c9.287-5.367 20.733-5.367 30.02 0l136.667 78.977c9.277 5.36 14.99 15.261 14.99 25.975v158c0 10.714-5.713 20.615-14.99 25.975l-136.667 78.977c-9.287 5.367-20.733 5.367-30.02 0l-136.668-78.977c-9.276-5.36-14.99-15.261-14.99-25.975v-158c0-10.714 5.714-20.615 14.99-25.975l136.668-78.977Z"/>
          <path id="top-right" fill="#FF6B4A" d="M490.014 184.899 338.337 97.248v333.267c0 23.099 25.01 37.532 45.01 25.975l106.667-61.641c9.277-5.36 14.99-15.261 14.99-25.975v-158c0-10.714-5.713-20.615-14.99-25.975Z"/>
          <path id="top-left" fill="#FF6B4A" d="m186.659 394.849 106.668 61.641c20 11.557 45.01-2.876 45.01-25.975V97.248l-151.678 87.651c-9.276 5.36-14.99 15.261-14.99 25.975v158c0 10.714 5.714 20.615 14.99 25.975Z"/>
          <path id="right" fill="#66BEEC" d="M505.003 386.374V228.405c0-15.4-16.673-25.022-30.007-17.317l-106.681 61.649c-18.552 10.721-29.979 30.522-29.979 51.949V448.03c0 15.4 16.673 25.022 30.006 17.317l136.661-78.973Z"/>
          <path id="left" fill="#F7EC61" d="M171.669 374.832c0 7.143 3.809 13.743 9.994 17.317l126.667 73.198c13.333 7.705 30.007-1.917 30.007-17.317V324.686c0-21.427-11.427-41.228-29.98-51.949l-106.681-61.649c-13.333-7.705-30.007 1.917-30.007 17.317v146.427Z"/>
        </g>
      </g>
      <g id="back-right" filter="url(#filter12_dd_309_3368)">
        <mask id="mask12_309_3368" width="334" height="368" x="503" y="106" maskUnits="userSpaceOnUse" style="mask-type:alpha">
          <path id="Polygon_13" fill="white" d="M640.154 114.596c18.575-10.734 41.467-10.734 60.041 0l106.667 61.641c18.553 10.721 29.98 30.522 29.98 51.949v123.376c0 21.427-11.427 41.228-29.98 51.949l-106.667 61.641c-18.574 10.734-41.466 10.734-60.041 0l-106.667-61.641c-18.553-10.721-29.98-30.522-29.98-51.949V228.186c0-21.427 11.427-41.228 29.98-51.949l106.667-61.641Z"/>
        </mask>
        <g mask="url(#mask12_309_3368)">
          <path id="top" fill="#FF6B4A" d="M655.164 105.922c9.288-5.367 20.734-5.367 30.021 0l136.667 78.977c9.277 5.36 14.99 15.261 14.99 25.975v158c0 10.714-5.713 20.615-14.99 25.975l-136.667 78.977c-9.287 5.367-20.733 5.367-30.021 0l-136.667-78.977c-9.276-5.36-14.99-15.261-14.99-25.975v-158c0-10.714 5.714-20.615 14.99-25.975l136.667-78.977Z"/>
          <path id="top-right" fill="#FF6B4A" d="M821.852 184.899 670.175 97.248v333.267c0 23.099 25.01 37.532 45.01 25.975l106.667-61.641c9.276-5.36 14.99-15.261 14.99-25.975v-158c0-10.714-5.714-20.615-14.99-25.975Z"/>
          <path id="top-left" fill="#FF6B4A" d="m518.497 394.849 106.667 61.641c20 11.557 45.011-2.876 45.011-25.975V97.248l-151.678 87.651c-9.276 5.36-14.99 15.261-14.99 25.975v158c0 10.714 5.714 20.615 14.99 25.975Z"/>
          <path id="right" fill="#66BEEC" d="M836.841 386.374V228.405c0-15.4-16.674-25.022-30.007-17.317l-106.681 61.649c-18.553 10.721-29.98 30.522-29.98 51.949V448.03c0 15.4 16.674 25.022 30.007 17.317l136.661-78.973Z"/>
          <path id="left" fill="#F7EC61" d="M503.507 374.832c0 7.143 3.809 13.743 9.993 17.317l126.668 73.198c13.333 7.705 30.007-1.917 30.007-17.317V324.686c0-21.427-11.427-41.228-29.98-51.949l-106.681-61.649c-13.333-7.705-30.007 1.917-30.007 17.317v146.427Z"/>
        </g>
      </g>
      <g id="right-corner" filter="url(#filter13_dd_309_3368)">
        <mask id="mask13_309_3368" width="334" height="367" x="670" y="203" maskUnits="userSpaceOnUse" style="mask-type:alpha">
          <path id="Polygon_14" fill="white" d="M806.82 211.096c18.575-10.734 41.467-10.734 60.041 0l106.668 61.641c18.552 10.721 29.981 30.522 29.981 51.949v123.376c0 21.427-11.429 41.228-29.981 51.949l-106.668 61.641c-18.574 10.734-41.466 10.734-60.041 0l-106.667-61.641c-18.553-10.721-29.98-30.522-29.98-51.949V324.686c0-21.427 11.427-41.228 29.98-51.949l106.667-61.641Z"/>
        </mask>
        <g mask="url(#mask13_309_3368)">
          <path id="top" fill="#FF6B4A" d="M821.831 202.422c9.287-5.367 20.733-5.367 30.02 0l136.668 78.977c9.276 5.36 14.991 15.261 14.991 25.975v158c0 10.714-5.715 20.615-14.991 25.975l-136.668 78.977c-9.287 5.367-20.733 5.367-30.02 0l-136.668-78.977c-9.276-5.36-14.99-15.261-14.99-25.975v-158c0-10.714 5.714-20.615 14.99-25.975l136.668-78.977Z"/>
          <path id="top-right" fill="#FF6B4A" d="m988.518 281.399-151.677-87.651v333.267c0 23.099 25.01 37.532 45.01 25.975l106.667-61.641c9.277-5.36 14.992-15.261 14.992-25.975v-158c0-10.714-5.715-20.615-14.992-25.975Z"/>
          <path id="top-left" fill="#FF6B4A" d="m685.163 491.349 106.668 61.641c20 11.557 45.01-2.876 45.01-25.975V193.748l-151.678 87.651c-9.276 5.36-14.99 15.261-14.99 25.975v158c0 10.714 5.714 20.615 14.99 25.975Z"/>
          <path id="right" fill="#66BEEC" d="M1003.51 482.874V324.905c0-15.4-16.676-25.022-30.01-17.317l-106.681 61.649c-18.552 10.721-29.979 30.522-29.979 51.949V544.53c0 15.4 16.673 25.022 30.007 17.317l136.663-78.973Z"/>
          <path id="left" fill="#F7EC61" d="M670.173 471.332c0 7.143 3.809 13.743 9.994 17.317l126.667 73.198c13.333 7.705 30.007-1.917 30.007-17.317V421.186c0-21.427-11.427-41.228-29.98-51.949L700.18 307.588c-13.333-7.705-30.007 1.917-30.007 17.317v146.427Z"/>
        </g>
      </g>
      <g id="center" filter="url(#filter14_ddd_309_3368)">
        <mask id="mask14_309_3368" width="334" height="367" x="338" y="202" maskUnits="userSpaceOnUse" style="mask-type:alpha">
          <path id="Polygon_15" fill="white" d="M474.983 210.348c18.574-10.734 41.466-10.734 60.041 0l106.667 61.641c18.553 10.721 29.98 30.522 29.98 51.949v123.376c0 21.427-11.427 41.228-29.98 51.949l-106.667 61.641c-18.575 10.734-41.467 10.734-60.041 0l-106.668-61.641c-18.552-10.721-29.979-30.522-29.979-51.949V323.938c0-21.427 11.427-41.228 29.979-51.949l106.668-61.641Z"/>
        </mask>
        <g mask="url(#mask14_309_3368)">
          <path id="top" fill="#FF6B4A" d="M489.993 201.674c9.287-5.367 20.733-5.367 30.02 0l136.668 78.977c9.276 5.36 14.99 15.261 14.99 25.975v158c0 10.714-5.714 20.615-14.99 25.975l-136.668 78.977c-9.287 5.367-20.733 5.367-30.02 0l-136.668-78.977c-9.276-5.36-14.989-15.261-14.989-25.975v-158c0-10.714 5.713-20.615 14.989-25.975l136.668-78.977Z"/>
          <path id="top-right" fill="#FF6B4A" d="M656.681 280.651 505.003 193v333.267c0 23.099 25.01 37.532 45.01 25.975l106.668-61.641c9.276-5.36 14.99-15.261 14.99-25.975v-158c0-10.714-5.714-20.615-14.99-25.975Z"/>
          <path id="top-left" fill="#FF6B4A" d="m353.325 490.601 106.668 61.641c20 11.557 45.01-2.876 45.01-25.975V193l-151.678 87.651c-9.276 5.36-14.989 15.261-14.989 25.975v158c0 10.714 5.713 20.615 14.989 25.975Z"/>
          <path id="right" fill="#66BEEC" d="M671.669 482.126V324.157c0-15.4-16.673-25.022-30.006-17.317l-106.681 61.649c-18.553 10.721-29.98 30.522-29.98 51.949v123.344c0 15.4 16.673 25.022 30.007 17.317l136.66-78.973Z"/>
          <path id="left" fill="#F7EC61" d="M338.336 470.584c0 7.143 3.809 13.743 9.993 17.317l126.667 73.198c13.334 7.705 30.007-1.917 30.007-17.317V420.438c0-21.427-11.427-41.228-29.979-51.949L368.342 306.84c-13.333-7.705-30.006 1.917-30.006 17.317v146.427Z"/>
        </g>
      </g>
      <g id="front-right" filter="url(#filter15_ddd_309_3368)">
        <mask id="mask15_309_3368" width="334" height="368" x="504" y="298" maskUnits="userSpaceOnUse" style="mask-type:alpha">
          <path id="Polygon_16" fill="white" d="M640.902 306.848c18.574-10.734 41.466-10.734 60.04 0l106.668 61.641c18.552 10.721 29.979 30.522 29.979 51.949v123.376c0 21.427-11.427 41.228-29.979 51.949l-106.668 61.641c-18.574 10.734-41.466 10.734-60.04 0l-106.668-61.641c-18.552-10.721-29.979-30.522-29.979-51.949V420.438c0-21.427 11.427-41.228 29.979-51.949l106.668-61.641Z"/>
        </mask>
        <g mask="url(#mask15_309_3368)">
          <path id="top" fill="#FF6B4A" d="M655.912 298.174c9.287-5.367 20.733-5.367 30.02 0L822.6 377.151c9.276 5.36 14.989 15.261 14.989 25.975v158c0 10.714-5.713 20.615-14.989 25.975l-136.668 78.977c-9.287 5.367-20.733 5.367-30.02 0l-136.668-78.977c-9.276-5.36-14.989-15.261-14.989-25.975v-158c0-10.714 5.713-20.615 14.989-25.975l136.668-78.977Z"/>
          <path id="top-right" fill="#FF6B4A" d="M822.6 377.151 670.922 289.5v333.267c0 23.099 25.01 37.532 45.01 25.975L822.6 587.101c9.276-5.36 14.989-15.261 14.989-25.975v-158c0-10.714-5.713-20.615-14.989-25.975Z"/>
          <path id="top-left" fill="#FF6B4A" d="m519.244 587.101 106.668 61.641c20 11.557 45.01-2.876 45.01-25.975V289.5l-151.678 87.651c-9.276 5.36-14.989 15.261-14.989 25.975v158c0 10.714 5.713 20.615 14.989 25.975Z"/>
          <path id="right" fill="#66BEEC" d="M837.588 578.626V420.657c0-15.4-16.673-25.022-30.007-17.317L700.9 464.989c-18.552 10.721-29.979 30.522-29.979 51.949v123.344c0 15.4 16.673 25.022 30.007 17.317l136.66-78.973Z"/>
          <path id="left" fill="#F7EC61" d="M504.255 567.084c0 7.143 3.809 13.743 9.993 17.317l126.667 73.198c13.333 7.705 30.007-1.917 30.007-17.317V516.938c0-21.427-11.427-41.228-29.98-51.949L534.261 403.34c-13.333-7.705-30.006 1.917-30.006 17.317v146.427Z"/>
        </g>
      </g>
      <g id="left-corner" filter="url(#filter16_dd_309_3368)">
        <mask id="mask16_309_3368" width="334" height="367" x="5" y="203" maskUnits="userSpaceOnUse" style="mask-type:alpha">
          <path id="Polygon_17" fill="white" d="M141.65 211.096c18.574-10.734 41.466-10.734 60.041 0l106.667 61.641c18.553 10.721 29.98 30.522 29.98 51.949v123.376c0 21.427-11.427 41.228-29.98 51.949l-106.667 61.641c-18.575 10.734-41.466 10.734-60.041 0L34.9826 500.011C16.4301 489.29 5.00305 469.489 5.00305 448.062V324.686c0-21.427 11.42705-41.228 29.97955-51.949L141.65 211.096Z"/>
        </mask>
        <g mask="url(#mask16_309_3368)">
          <path id="top" fill="#FF6B4A" d="M156.66 202.422c9.287-5.367 20.733-5.367 30.021 0l136.667 78.977c9.276 5.36 14.99 15.261 14.99 25.975v158c0 10.714-5.714 20.615-14.99 25.975l-136.667 78.977c-9.288 5.367-20.734 5.367-30.021 0L19.9928 491.349c-9.2762-5.36-14.98975-15.261-14.98975-25.975v-158c0-10.714 5.71355-20.615 14.98975-25.975L156.66 202.422Z"/>
          <path id="top-right" fill="#FF6B4A" d="M323.348 281.399 171.67 193.748v333.267c0 23.099 25.011 37.532 45.011 25.975l106.667-61.641c9.276-5.36 14.99-15.261 14.99-25.975v-158c0-10.714-5.714-20.615-14.99-25.975Z"/>
          <path id="top-left" fill="#FF6B4A" d="M19.9928 491.349 126.66 552.99c20 11.557 45.01-2.876 45.01-25.975V193.748L19.9928 281.399c-9.2762 5.36-14.98975 15.261-14.98975 25.975v158c0 10.714 5.71355 20.615 14.98975 25.975Z"/>
          <path id="right" fill="#66BEEC" d="M338.337 482.874V324.905c0-15.4-16.674-25.022-30.007-17.317l-106.681 61.649c-18.553 10.721-29.98 30.522-29.98 51.949V544.53c0 15.4 16.674 25.022 30.007 17.317l136.661-78.973Z"/>
          <path id="left" fill="#F7EC61" d="M5.00305 471.332c0 7.143 3.80901 13.743 9.99315 17.317l126.6678 73.198c13.333 7.705 30.006-1.917 30.006-17.317V421.186c0-21.427-11.427-41.228-29.979-51.949L35.0099 307.588c-13.3334-7.705-30.00685 1.917-30.00685 17.317v146.427Z"/>
        </g>
      </g>
      <g id="front-left" filter="url(#filter17_ddd_309_3368)">
        <mask id="mask17_309_3368" width="335" height="368" x="171" y="298" maskUnits="userSpaceOnUse" style="mask-type:alpha">
          <path id="Polygon_18" fill="white" d="M308.316 306.848c18.575-10.734 41.467-10.734 60.041 0l106.668 61.641c18.552 10.721 29.979 30.522 29.979 51.949v123.376c0 21.427-11.427 41.228-29.979 51.949l-106.668 61.641c-18.574 10.734-41.466 10.734-60.041 0l-106.667-61.641c-18.553-10.721-29.98-30.522-29.98-51.949V420.438c0-21.427 11.427-41.228 29.98-51.949l106.667-61.641Z"/>
        </mask>
        <g mask="url(#mask17_309_3368)">
          <path id="top" fill="#FF6B4A" d="M323.327 298.174c9.287-5.367 20.733-5.367 30.02 0l136.667 78.977c9.277 5.36 14.99 15.261 14.99 25.975v158c0 10.714-5.713 20.615-14.99 25.975l-136.667 78.977c-9.287 5.367-20.733 5.367-30.02 0l-136.668-78.977c-9.276-5.36-14.99-15.261-14.99-25.975v-158c0-10.714 5.714-20.615 14.99-25.975l136.668-78.977Z"/>
          <path id="top-right" fill="#FF6B4A" d="M490.014 377.151 338.337 289.5v333.267c0 23.099 25.01 37.532 45.01 25.975l106.667-61.641c9.277-5.36 14.99-15.261 14.99-25.975v-158c0-10.714-5.713-20.615-14.99-25.975Z"/>
          <path id="top-left" fill="#FF6B4A" d="m186.659 587.101 106.668 61.641c20 11.557 45.01-2.876 45.01-25.975V289.5l-151.678 87.651c-9.276 5.36-14.99 15.261-14.99 25.975v158c0 10.714 5.714 20.615 14.99 25.975Z"/>
          <path id="right" fill="#66BEEC" d="M505.003 578.626V420.657c0-15.4-16.673-25.022-30.007-17.317l-106.681 61.649c-18.552 10.721-29.979 30.522-29.979 51.949v123.344c0 15.4 16.673 25.022 30.006 17.317l136.661-78.973Z"/>
          <path id="left" fill="#F7EC61" d="M171.669 567.084c0 7.143 3.809 13.743 9.994 17.317l126.667 73.198c13.333 7.705 30.007-1.917 30.007-17.317V516.938c0-21.427-11.427-41.228-29.98-51.949L201.676 403.34c-13.333-7.705-30.007 1.917-30.007 17.317v146.427Z"/>
        </g>
      </g>
      <g id="front-corner" filter="url(#filter18_ddd_309_3368)">
        <mask id="mask18_309_3368" width="334" height="367" x="338" y="395" maskUnits="userSpaceOnUse" style="mask-type:alpha">
          <path id="Polygon_19" fill="white" d="M474.983 403.348c18.574-10.734 41.466-10.734 60.041 0l106.667 61.641c18.553 10.721 29.98 30.522 29.98 51.949v123.376c0 21.427-11.427 41.228-29.98 51.949l-106.667 61.641c-18.575 10.734-41.467 10.734-60.041 0l-106.668-61.641c-18.552-10.721-29.979-30.522-29.979-51.949V516.938c0-21.427 11.427-41.228 29.979-51.949l106.668-61.641Z"/>
        </mask>
        <g mask="url(#mask18_309_3368)">
          <path id="top" fill="#FF6B4A" d="M489.993 394.674c9.287-5.367 20.733-5.367 30.02 0l136.668 78.977c9.276 5.36 14.99 15.261 14.99 25.975v158c0 10.714-5.714 20.615-14.99 25.975l-136.668 78.977c-9.287 5.367-20.733 5.367-30.02 0l-136.668-78.977c-9.276-5.36-14.989-15.261-14.989-25.975v-158c0-10.714 5.713-20.615 14.989-25.975l136.668-78.977Z"/>
          <path id="top-right" fill="#FF6B4A" d="M656.681 473.651 505.003 386v333.267c0 23.099 25.01 37.532 45.01 25.975l106.668-61.641c9.276-5.36 14.99-15.261 14.99-25.975v-158c0-10.714-5.714-20.615-14.99-25.975Z"/>
          <path id="top-left" fill="#FF6B4A" d="m353.325 683.601 106.668 61.641c20 11.557 45.01-2.876 45.01-25.975V386l-151.678 87.651c-9.276 5.36-14.989 15.261-14.989 25.975v158c0 10.714 5.713 20.615 14.989 25.975Z"/>
          <path id="right" fill="#66BEEC" d="M671.669 675.126V517.157c0-15.4-16.673-25.022-30.006-17.317l-106.681 61.649c-18.553 10.721-29.98 30.522-29.98 51.949v123.344c0 15.4 16.673 25.022 30.007 17.317l136.66-78.973Z"/>
          <path id="left" fill="#F7EC61" d="M338.336 663.584c0 7.143 3.809 13.743 9.993 17.317l126.667 73.198c13.334 7.705 30.007-1.917 30.007-17.317V613.438c0-21.427-11.427-41.228-29.979-51.949L368.342 499.84c-13.333-7.705-30.006 1.917-30.006 17.317v146.427Z"/>
        </g>
      </g>
    </g>
  <defs>
    <filter id="filter0_dd_309_3368" width="351.335" height="403.252" x="655.426" y="573.504" color-interpolation-filters="sRGB" filterUnits="userSpaceOnUse">
      <feFlood flood-opacity="0" result="BackgroundImageFix"/>
      <feColorMatrix in="SourceAlpha" result="hardAlpha" values="0 0 0 0 0 0 0 0 0 0 0 0 0 0 0 0 0 0 127 0"/>
      <feOffset dy="10"/>
      <feGaussianBlur stdDeviation="2"/>
      <feComposite in2="hardAlpha" operator="out"/>
      <feColorMatrix values="0 0 0 0 0 0 0 0 0 0 0 0 0 0 0 0 0 0 0.2 0"/>
      <feBlend in2="BackgroundImageFix" result="effect1_dropShadow_309_3368"/>
      <feColorMatrix in="SourceAlpha" result="hardAlpha" values="0 0 0 0 0 0 0 0 0 0 0 0 0 0 0 0 0 0 127 0"/>
      <feOffset dx="-10"/>
      <feGaussianBlur stdDeviation="2"/>
      <feComposite in2="hardAlpha" operator="out"/>
      <feColorMatrix values="0 0 0 0 0 0 0 0 0 0 0 0 0 0 0 0 0 0 0.2 0"/>
      <feBlend in2="effect1_dropShadow_309_3368" result="effect2_dropShadow_309_3368"/>
      <feBlend in="SourceGraphic" in2="effect2_dropShadow_309_3368" result="shape"/>
    </filter>
    <filter id="filter1_ddd_309_3368" width="361.335" height="403.252" x="489.507" y="669.256" color-interpolation-filters="sRGB" filterUnits="userSpaceOnUse">
      <feFlood flood-opacity="0" result="BackgroundImageFix"/>
      <feColorMatrix in="SourceAlpha" result="hardAlpha" values="0 0 0 0 0 0 0 0 0 0 0 0 0 0 0 0 0 0 127 0"/>
      <feOffset dy="10"/>
      <feGaussianBlur stdDeviation="2"/>
      <feComposite in2="hardAlpha" operator="out"/>
      <feColorMatrix values="0 0 0 0 0 0 0 0 0 0 0 0 0 0 0 0 0 0 0.2 0"/>
      <feBlend in2="BackgroundImageFix" result="effect1_dropShadow_309_3368"/>
      <feColorMatrix in="SourceAlpha" result="hardAlpha" values="0 0 0 0 0 0 0 0 0 0 0 0 0 0 0 0 0 0 127 0"/>
      <feOffset dx="-10"/>
      <feGaussianBlur stdDeviation="2"/>
      <feComposite in2="hardAlpha" operator="out"/>
      <feColorMatrix values="0 0 0 0 0 0 0 0 0 0 0 0 0 0 0 0 0 0 0.2 0"/>
      <feBlend in2="effect1_dropShadow_309_3368" result="effect2_dropShadow_309_3368"/>
      <feColorMatrix in="SourceAlpha" result="hardAlpha" values="0 0 0 0 0 0 0 0 0 0 0 0 0 0 0 0 0 0 127 0"/>
      <feOffset dx="10"/>
      <feGaussianBlur stdDeviation="2"/>
      <feComposite in2="hardAlpha" operator="out"/>
      <feColorMatrix values="0 0 0 0 0 0 0 0 0 0 0 0 0 0 0 0 0 0 0.2 0"/>
      <feBlend in2="effect2_dropShadow_309_3368" result="effect3_dropShadow_309_3368"/>
      <feBlend in="SourceGraphic" in2="effect3_dropShadow_309_3368" result="shape"/>
    </filter>
    <filter id="filter2_dd_309_3368" width="351.335" height="403.252" x=".255669" y="573.504" color-interpolation-filters="sRGB" filterUnits="userSpaceOnUse">
      <feFlood flood-opacity="0" result="BackgroundImageFix"/>
      <feColorMatrix in="SourceAlpha" result="hardAlpha" values="0 0 0 0 0 0 0 0 0 0 0 0 0 0 0 0 0 0 127 0"/>
      <feOffset dy="10"/>
      <feGaussianBlur stdDeviation="2"/>
      <feComposite in2="hardAlpha" operator="out"/>
      <feColorMatrix values="0 0 0 0 0 0 0 0 0 0 0 0 0 0 0 0 0 0 0.2 0"/>
      <feBlend in2="BackgroundImageFix" result="effect1_dropShadow_309_3368"/>
      <feColorMatrix in="SourceAlpha" result="hardAlpha" values="0 0 0 0 0 0 0 0 0 0 0 0 0 0 0 0 0 0 127 0"/>
      <feOffset dx="10"/>
      <feGaussianBlur stdDeviation="2"/>
      <feComposite in2="hardAlpha" operator="out"/>
      <feColorMatrix values="0 0 0 0 0 0 0 0 0 0 0 0 0 0 0 0 0 0 0.2 0"/>
      <feBlend in2="effect1_dropShadow_309_3368" result="effect2_dropShadow_309_3368"/>
      <feBlend in="SourceGraphic" in2="effect2_dropShadow_309_3368" result="shape"/>
    </filter>
    <filter id="filter3_ddd_309_3368" width="361.335" height="403.252" x="156.922" y="669.256" color-interpolation-filters="sRGB" filterUnits="userSpaceOnUse">
      <feFlood flood-opacity="0" result="BackgroundImageFix"/>
      <feColorMatrix in="SourceAlpha" result="hardAlpha" values="0 0 0 0 0 0 0 0 0 0 0 0 0 0 0 0 0 0 127 0"/>
      <feOffset dy="10"/>
      <feGaussianBlur stdDeviation="2"/>
      <feComposite in2="hardAlpha" operator="out"/>
      <feColorMatrix values="0 0 0 0 0 0 0 0 0 0 0 0 0 0 0 0 0 0 0.2 0"/>
      <feBlend in2="BackgroundImageFix" result="effect1_dropShadow_309_3368"/>
      <feColorMatrix in="SourceAlpha" result="hardAlpha" values="0 0 0 0 0 0 0 0 0 0 0 0 0 0 0 0 0 0 127 0"/>
      <feOffset dx="-10"/>
      <feGaussianBlur stdDeviation="2"/>
      <feComposite in2="hardAlpha" operator="out"/>
      <feColorMatrix values="0 0 0 0 0 0 0 0 0 0 0 0 0 0 0 0 0 0 0.2 0"/>
      <feBlend in2="effect1_dropShadow_309_3368" result="effect2_dropShadow_309_3368"/>
      <feColorMatrix in="SourceAlpha" result="hardAlpha" values="0 0 0 0 0 0 0 0 0 0 0 0 0 0 0 0 0 0 127 0"/>
      <feOffset dx="10"/>
      <feGaussianBlur stdDeviation="2"/>
      <feComposite in2="hardAlpha" operator="out"/>
      <feColorMatrix values="0 0 0 0 0 0 0 0 0 0 0 0 0 0 0 0 0 0 0.2 0"/>
      <feBlend in2="effect2_dropShadow_309_3368" result="effect3_dropShadow_309_3368"/>
      <feBlend in="SourceGraphic" in2="effect3_dropShadow_309_3368" result="shape"/>
    </filter>
    <filter id="filter4_ddd_309_3368" width="361.335" height="403.252" x="323.588" y="765.756" color-interpolation-filters="sRGB" filterUnits="userSpaceOnUse">
      <feFlood flood-opacity="0" result="BackgroundImageFix"/>
      <feColorMatrix in="SourceAlpha" result="hardAlpha" values="0 0 0 0 0 0 0 0 0 0 0 0 0 0 0 0 0 0 127 0"/>
      <feOffset dy="10"/>
      <feGaussianBlur stdDeviation="2"/>
      <feComposite in2="hardAlpha" operator="out"/>
      <feColorMatrix values="0 0 0 0 0 0 0 0 0 0 0 0 0 0 0 0 0 0 0.2 0"/>
      <feBlend in2="BackgroundImageFix" result="effect1_dropShadow_309_3368"/>
      <feColorMatrix in="SourceAlpha" result="hardAlpha" values="0 0 0 0 0 0 0 0 0 0 0 0 0 0 0 0 0 0 127 0"/>
      <feOffset dx="-10"/>
      <feGaussianBlur stdDeviation="2"/>
      <feComposite in2="hardAlpha" operator="out"/>
      <feColorMatrix values="0 0 0 0 0 0 0 0 0 0 0 0 0 0 0 0 0 0 0.2 0"/>
      <feBlend in2="effect1_dropShadow_309_3368" result="effect2_dropShadow_309_3368"/>
      <feColorMatrix in="SourceAlpha" result="hardAlpha" values="0 0 0 0 0 0 0 0 0 0 0 0 0 0 0 0 0 0 127 0"/>
      <feOffset dx="10"/>
      <feGaussianBlur stdDeviation="2"/>
      <feComposite in2="hardAlpha" operator="out"/>
      <feColorMatrix values="0 0 0 0 0 0 0 0 0 0 0 0 0 0 0 0 0 0 0.2 0"/>
      <feBlend in2="effect2_dropShadow_309_3368" result="effect3_dropShadow_309_3368"/>
      <feBlend in="SourceGraphic" in2="effect3_dropShadow_309_3368" result="shape"/>
    </filter>
    <filter id="filter5_dd_309_3368" width="351.335" height="403.252" x="655.426" y="381.252" color-interpolation-filters="sRGB" filterUnits="userSpaceOnUse">
      <feFlood flood-opacity="0" result="BackgroundImageFix"/>
      <feColorMatrix in="SourceAlpha" result="hardAlpha" values="0 0 0 0 0 0 0 0 0 0 0 0 0 0 0 0 0 0 127 0"/>
      <feOffset dy="10"/>
      <feGaussianBlur stdDeviation="2"/>
      <feComposite in2="hardAlpha" operator="out"/>
      <feColorMatrix values="0 0 0 0 0 0 0 0 0 0 0 0 0 0 0 0 0 0 0.2 0"/>
      <feBlend in2="BackgroundImageFix" result="effect1_dropShadow_309_3368"/>
      <feColorMatrix in="SourceAlpha" result="hardAlpha" values="0 0 0 0 0 0 0 0 0 0 0 0 0 0 0 0 0 0 127 0"/>
      <feOffset dx="-10"/>
      <feGaussianBlur stdDeviation="2"/>
      <feComposite in2="hardAlpha" operator="out"/>
      <feColorMatrix values="0 0 0 0 0 0 0 0 0 0 0 0 0 0 0 0 0 0 0.2 0"/>
      <feBlend in2="effect1_dropShadow_309_3368" result="effect2_dropShadow_309_3368"/>
      <feBlend in="SourceGraphic" in2="effect2_dropShadow_309_3368" result="shape"/>
    </filter>
    <filter id="filter6_ddd_309_3368" width="361.335" height="403.252" x="489.507" y="477.004" color-interpolation-filters="sRGB" filterUnits="userSpaceOnUse">
      <feFlood flood-opacity="0" result="BackgroundImageFix"/>
      <feColorMatrix in="SourceAlpha" result="hardAlpha" values="0 0 0 0 0 0 0 0 0 0 0 0 0 0 0 0 0 0 127 0"/>
      <feOffset dy="10"/>
      <feGaussianBlur stdDeviation="2"/>
      <feComposite in2="hardAlpha" operator="out"/>
      <feColorMatrix values="0 0 0 0 0 0 0 0 0 0 0 0 0 0 0 0 0 0 0.2 0"/>
      <feBlend in2="BackgroundImageFix" result="effect1_dropShadow_309_3368"/>
      <feColorMatrix in="SourceAlpha" result="hardAlpha" values="0 0 0 0 0 0 0 0 0 0 0 0 0 0 0 0 0 0 127 0"/>
      <feOffset dx="-10"/>
      <feGaussianBlur stdDeviation="2"/>
      <feComposite in2="hardAlpha" operator="out"/>
      <feColorMatrix values="0 0 0 0 0 0 0 0 0 0 0 0 0 0 0 0 0 0 0.2 0"/>
      <feBlend in2="effect1_dropShadow_309_3368" result="effect2_dropShadow_309_3368"/>
      <feColorMatrix in="SourceAlpha" result="hardAlpha" values="0 0 0 0 0 0 0 0 0 0 0 0 0 0 0 0 0 0 127 0"/>
      <feOffset dx="10"/>
      <feGaussianBlur stdDeviation="2"/>
      <feComposite in2="hardAlpha" operator="out"/>
      <feColorMatrix values="0 0 0 0 0 0 0 0 0 0 0 0 0 0 0 0 0 0 0.2 0"/>
      <feBlend in2="effect2_dropShadow_309_3368" result="effect3_dropShadow_309_3368"/>
      <feBlend in="SourceGraphic" in2="effect3_dropShadow_309_3368" result="shape"/>
    </filter>
    <filter id="filter7_dd_309_3368" width="351.335" height="403.252" x=".255669" y="381.252" color-interpolation-filters="sRGB" filterUnits="userSpaceOnUse">
      <feFlood flood-opacity="0" result="BackgroundImageFix"/>
      <feColorMatrix in="SourceAlpha" result="hardAlpha" values="0 0 0 0 0 0 0 0 0 0 0 0 0 0 0 0 0 0 127 0"/>
      <feOffset dy="10"/>
      <feGaussianBlur stdDeviation="2"/>
      <feComposite in2="hardAlpha" operator="out"/>
      <feColorMatrix values="0 0 0 0 0 0 0 0 0 0 0 0 0 0 0 0 0 0 0.2 0"/>
      <feBlend in2="BackgroundImageFix" result="effect1_dropShadow_309_3368"/>
      <feColorMatrix in="SourceAlpha" result="hardAlpha" values="0 0 0 0 0 0 0 0 0 0 0 0 0 0 0 0 0 0 127 0"/>
      <feOffset dx="10"/>
      <feGaussianBlur stdDeviation="2"/>
      <feComposite in2="hardAlpha" operator="out"/>
      <feColorMatrix values="0 0 0 0 0 0 0 0 0 0 0 0 0 0 0 0 0 0 0.2 0"/>
      <feBlend in2="effect1_dropShadow_309_3368" result="effect2_dropShadow_309_3368"/>
      <feBlend in="SourceGraphic" in2="effect2_dropShadow_309_3368" result="shape"/>
    </filter>
    <filter id="filter8_ddd_309_3368" width="361.335" height="403.252" x="156.922" y="477.004" color-interpolation-filters="sRGB" filterUnits="userSpaceOnUse">
      <feFlood flood-opacity="0" result="BackgroundImageFix"/>
      <feColorMatrix in="SourceAlpha" result="hardAlpha" values="0 0 0 0 0 0 0 0 0 0 0 0 0 0 0 0 0 0 127 0"/>
      <feOffset dy="10"/>
      <feGaussianBlur stdDeviation="2"/>
      <feComposite in2="hardAlpha" operator="out"/>
      <feColorMatrix values="0 0 0 0 0 0 0 0 0 0 0 0 0 0 0 0 0 0 0.2 0"/>
      <feBlend in2="BackgroundImageFix" result="effect1_dropShadow_309_3368"/>
      <feColorMatrix in="SourceAlpha" result="hardAlpha" values="0 0 0 0 0 0 0 0 0 0 0 0 0 0 0 0 0 0 127 0"/>
      <feOffset dx="-10"/>
      <feGaussianBlur stdDeviation="2"/>
      <feComposite in2="hardAlpha" operator="out"/>
      <feColorMatrix values="0 0 0 0 0 0 0 0 0 0 0 0 0 0 0 0 0 0 0.2 0"/>
      <feBlend in2="effect1_dropShadow_309_3368" result="effect2_dropShadow_309_3368"/>
      <feColorMatrix in="SourceAlpha" result="hardAlpha" values="0 0 0 0 0 0 0 0 0 0 0 0 0 0 0 0 0 0 127 0"/>
      <feOffset dx="10"/>
      <feGaussianBlur stdDeviation="2"/>
      <feComposite in2="hardAlpha" operator="out"/>
      <feColorMatrix values="0 0 0 0 0 0 0 0 0 0 0 0 0 0 0 0 0 0 0.2 0"/>
      <feBlend in2="effect2_dropShadow_309_3368" result="effect3_dropShadow_309_3368"/>
      <feBlend in="SourceGraphic" in2="effect3_dropShadow_309_3368" result="shape"/>
    </filter>
    <filter id="filter9_ddd_309_3368" width="361.335" height="403.252" x="323.588" y="573.504" color-interpolation-filters="sRGB" filterUnits="userSpaceOnUse">
      <feFlood flood-opacity="0" result="BackgroundImageFix"/>
      <feColorMatrix in="SourceAlpha" result="hardAlpha" values="0 0 0 0 0 0 0 0 0 0 0 0 0 0 0 0 0 0 127 0"/>
      <feOffset dy="10"/>
      <feGaussianBlur stdDeviation="2"/>
      <feComposite in2="hardAlpha" operator="out"/>
      <feColorMatrix values="0 0 0 0 0 0 0 0 0 0 0 0 0 0 0 0 0 0 0.2 0"/>
      <feBlend in2="BackgroundImageFix" result="effect1_dropShadow_309_3368"/>
      <feColorMatrix in="SourceAlpha" result="hardAlpha" values="0 0 0 0 0 0 0 0 0 0 0 0 0 0 0 0 0 0 127 0"/>
      <feOffset dx="-10"/>
      <feGaussianBlur stdDeviation="2"/>
      <feComposite in2="hardAlpha" operator="out"/>
      <feColorMatrix values="0 0 0 0 0 0 0 0 0 0 0 0 0 0 0 0 0 0 0.2 0"/>
      <feBlend in2="effect1_dropShadow_309_3368" result="effect2_dropShadow_309_3368"/>
      <feColorMatrix in="SourceAlpha" result="hardAlpha" values="0 0 0 0 0 0 0 0 0 0 0 0 0 0 0 0 0 0 127 0"/>
      <feOffset dx="10"/>
      <feGaussianBlur stdDeviation="2"/>
      <feComposite in2="hardAlpha" operator="out"/>
      <feColorMatrix values="0 0 0 0 0 0 0 0 0 0 0 0 0 0 0 0 0 0 0.2 0"/>
      <feBlend in2="effect2_dropShadow_309_3368" result="effect3_dropShadow_309_3368"/>
      <feBlend in="SourceGraphic" in2="effect3_dropShadow_309_3368" result="shape"/>
    </filter>
    <filter id="filter10_d_309_3368" width="341.335" height="399.252" x="334.336" y=".748047" color-interpolation-filters="sRGB" filterUnits="userSpaceOnUse">
      <feFlood flood-opacity="0" result="BackgroundImageFix"/>
      <feColorMatrix in="SourceAlpha" result="hardAlpha" values="0 0 0 0 0 0 0 0 0 0 0 0 0 0 0 0 0 0 127 0"/>
      <feOffset dy="10"/>
      <feGaussianBlur stdDeviation="2"/>
      <feComposite in2="hardAlpha" operator="out"/>
      <feColorMatrix values="0 0 0 0 0 0 0 0 0 0 0 0 0 0 0 0 0 0 0.2 0"/>
      <feBlend in2="BackgroundImageFix" result="effect1_dropShadow_309_3368"/>
      <feBlend in="SourceGraphic" in2="effect1_dropShadow_309_3368" result="shape"/>
    </filter>
    <filter id="filter11_dd_309_3368" width="351.335" height="403.252" x="167.669" y="93.248" color-interpolation-filters="sRGB" filterUnits="userSpaceOnUse">
      <feFlood flood-opacity="0" result="BackgroundImageFix"/>
      <feColorMatrix in="SourceAlpha" result="hardAlpha" values="0 0 0 0 0 0 0 0 0 0 0 0 0 0 0 0 0 0 127 0"/>
      <feOffset dy="10"/>
      <feGaussianBlur stdDeviation="2"/>
      <feComposite in2="hardAlpha" operator="out"/>
      <feColorMatrix values="0 0 0 0 0 0 0 0 0 0 0 0 0 0 0 0 0 0 0.2 0"/>
      <feBlend in2="BackgroundImageFix" result="effect1_dropShadow_309_3368"/>
      <feColorMatrix in="SourceAlpha" result="hardAlpha" values="0 0 0 0 0 0 0 0 0 0 0 0 0 0 0 0 0 0 127 0"/>
      <feOffset dx="10"/>
      <feGaussianBlur stdDeviation="2"/>
      <feComposite in2="hardAlpha" operator="out"/>
      <feColorMatrix values="0 0 0 0 0 0 0 0 0 0 0 0 0 0 0 0 0 0 0.2 0"/>
      <feBlend in2="effect1_dropShadow_309_3368" result="effect2_dropShadow_309_3368"/>
      <feBlend in="SourceGraphic" in2="effect2_dropShadow_309_3368" result="shape"/>
    </filter>
    <filter id="filter12_dd_309_3368" width="351.335" height="403.252" x="489.507" y="93.248" color-interpolation-filters="sRGB" filterUnits="userSpaceOnUse">
      <feFlood flood-opacity="0" result="BackgroundImageFix"/>
      <feColorMatrix in="SourceAlpha" result="hardAlpha" values="0 0 0 0 0 0 0 0 0 0 0 0 0 0 0 0 0 0 127 0"/>
      <feOffset dy="10"/>
      <feGaussianBlur stdDeviation="2"/>
      <feComposite in2="hardAlpha" operator="out"/>
      <feColorMatrix values="0 0 0 0 0 0 0 0 0 0 0 0 0 0 0 0 0 0 0.2 0"/>
      <feBlend in2="BackgroundImageFix" result="effect1_dropShadow_309_3368"/>
      <feColorMatrix in="SourceAlpha" result="hardAlpha" values="0 0 0 0 0 0 0 0 0 0 0 0 0 0 0 0 0 0 127 0"/>
      <feOffset dx="-10"/>
      <feGaussianBlur stdDeviation="2"/>
      <feComposite in2="hardAlpha" operator="out"/>
      <feColorMatrix values="0 0 0 0 0 0 0 0 0 0 0 0 0 0 0 0 0 0 0.2 0"/>
      <feBlend in2="effect1_dropShadow_309_3368" result="effect2_dropShadow_309_3368"/>
      <feBlend in="SourceGraphic" in2="effect2_dropShadow_309_3368" result="shape"/>
    </filter>
    <filter id="filter13_dd_309_3368" width="351.335" height="403.252" x="656.173" y="189.748" color-interpolation-filters="sRGB" filterUnits="userSpaceOnUse">
      <feFlood flood-opacity="0" result="BackgroundImageFix"/>
      <feColorMatrix in="SourceAlpha" result="hardAlpha" values="0 0 0 0 0 0 0 0 0 0 0 0 0 0 0 0 0 0 127 0"/>
      <feOffset dy="10"/>
      <feGaussianBlur stdDeviation="2"/>
      <feComposite in2="hardAlpha" operator="out"/>
      <feColorMatrix values="0 0 0 0 0 0 0 0 0 0 0 0 0 0 0 0 0 0 0.2 0"/>
      <feBlend in2="BackgroundImageFix" result="effect1_dropShadow_309_3368"/>
      <feColorMatrix in="SourceAlpha" result="hardAlpha" values="0 0 0 0 0 0 0 0 0 0 0 0 0 0 0 0 0 0 127 0"/>
      <feOffset dx="-10"/>
      <feGaussianBlur stdDeviation="2"/>
      <feComposite in2="hardAlpha" operator="out"/>
      <feColorMatrix values="0 0 0 0 0 0 0 0 0 0 0 0 0 0 0 0 0 0 0.2 0"/>
      <feBlend in2="effect1_dropShadow_309_3368" result="effect2_dropShadow_309_3368"/>
      <feBlend in="SourceGraphic" in2="effect2_dropShadow_309_3368" result="shape"/>
    </filter>
    <filter id="filter14_ddd_309_3368" width="361.335" height="403.252" x="324.336" y="189" color-interpolation-filters="sRGB" filterUnits="userSpaceOnUse">
      <feFlood flood-opacity="0" result="BackgroundImageFix"/>
      <feColorMatrix in="SourceAlpha" result="hardAlpha" values="0 0 0 0 0 0 0 0 0 0 0 0 0 0 0 0 0 0 127 0"/>
      <feOffset dy="10"/>
      <feGaussianBlur stdDeviation="2"/>
      <feComposite in2="hardAlpha" operator="out"/>
      <feColorMatrix values="0 0 0 0 0 0 0 0 0 0 0 0 0 0 0 0 0 0 0.2 0"/>
      <feBlend in2="BackgroundImageFix" result="effect1_dropShadow_309_3368"/>
      <feColorMatrix in="SourceAlpha" result="hardAlpha" values="0 0 0 0 0 0 0 0 0 0 0 0 0 0 0 0 0 0 127 0"/>
      <feOffset dx="-10"/>
      <feGaussianBlur stdDeviation="2"/>
      <feComposite in2="hardAlpha" operator="out"/>
      <feColorMatrix values="0 0 0 0 0 0 0 0 0 0 0 0 0 0 0 0 0 0 0.2 0"/>
      <feBlend in2="effect1_dropShadow_309_3368" result="effect2_dropShadow_309_3368"/>
      <feColorMatrix in="SourceAlpha" result="hardAlpha" values="0 0 0 0 0 0 0 0 0 0 0 0 0 0 0 0 0 0 127 0"/>
      <feOffset dx="10"/>
      <feGaussianBlur stdDeviation="2"/>
      <feComposite in2="hardAlpha" operator="out"/>
      <feColorMatrix values="0 0 0 0 0 0 0 0 0 0 0 0 0 0 0 0 0 0 0.2 0"/>
      <feBlend in2="effect2_dropShadow_309_3368" result="effect3_dropShadow_309_3368"/>
      <feBlend in="SourceGraphic" in2="effect3_dropShadow_309_3368" result="shape"/>
    </filter>
    <filter id="filter15_ddd_309_3368" width="361.335" height="403.252" x="490.255" y="285.5" color-interpolation-filters="sRGB" filterUnits="userSpaceOnUse">
      <feFlood flood-opacity="0" result="BackgroundImageFix"/>
      <feColorMatrix in="SourceAlpha" result="hardAlpha" values="0 0 0 0 0 0 0 0 0 0 0 0 0 0 0 0 0 0 127 0"/>
      <feOffset dy="10"/>
      <feGaussianBlur stdDeviation="2"/>
      <feComposite in2="hardAlpha" operator="out"/>
      <feColorMatrix values="0 0 0 0 0 0 0 0 0 0 0 0 0 0 0 0 0 0 0.2 0"/>
      <feBlend in2="BackgroundImageFix" result="effect1_dropShadow_309_3368"/>
      <feColorMatrix in="SourceAlpha" result="hardAlpha" values="0 0 0 0 0 0 0 0 0 0 0 0 0 0 0 0 0 0 127 0"/>
      <feOffset dx="-10"/>
      <feGaussianBlur stdDeviation="2"/>
      <feComposite in2="hardAlpha" operator="out"/>
      <feColorMatrix values="0 0 0 0 0 0 0 0 0 0 0 0 0 0 0 0 0 0 0.2 0"/>
      <feBlend in2="effect1_dropShadow_309_3368" result="effect2_dropShadow_309_3368"/>
      <feColorMatrix in="SourceAlpha" result="hardAlpha" values="0 0 0 0 0 0 0 0 0 0 0 0 0 0 0 0 0 0 127 0"/>
      <feOffset dx="10"/>
      <feGaussianBlur stdDeviation="2"/>
      <feComposite in2="hardAlpha" operator="out"/>
      <feColorMatrix values="0 0 0 0 0 0 0 0 0 0 0 0 0 0 0 0 0 0 0.2 0"/>
      <feBlend in2="effect2_dropShadow_309_3368" result="effect3_dropShadow_309_3368"/>
      <feBlend in="SourceGraphic" in2="effect3_dropShadow_309_3368" result="shape"/>
    </filter>
    <filter id="filter16_dd_309_3368" width="351.335" height="403.252" x="1.00305" y="189.748" color-interpolation-filters="sRGB" filterUnits="userSpaceOnUse">
      <feFlood flood-opacity="0" result="BackgroundImageFix"/>
      <feColorMatrix in="SourceAlpha" result="hardAlpha" values="0 0 0 0 0 0 0 0 0 0 0 0 0 0 0 0 0 0 127 0"/>
      <feOffset dy="10"/>
      <feGaussianBlur stdDeviation="2"/>
      <feComposite in2="hardAlpha" operator="out"/>
      <feColorMatrix values="0 0 0 0 0 0 0 0 0 0 0 0 0 0 0 0 0 0 0.2 0"/>
      <feBlend in2="BackgroundImageFix" result="effect1_dropShadow_309_3368"/>
      <feColorMatrix in="SourceAlpha" result="hardAlpha" values="0 0 0 0 0 0 0 0 0 0 0 0 0 0 0 0 0 0 127 0"/>
      <feOffset dx="10"/>
      <feGaussianBlur stdDeviation="2"/>
      <feComposite in2="hardAlpha" operator="out"/>
      <feColorMatrix values="0 0 0 0 0 0 0 0 0 0 0 0 0 0 0 0 0 0 0.2 0"/>
      <feBlend in2="effect1_dropShadow_309_3368" result="effect2_dropShadow_309_3368"/>
      <feBlend in="SourceGraphic" in2="effect2_dropShadow_309_3368" result="shape"/>
    </filter>
    <filter id="filter17_ddd_309_3368" width="361.335" height="403.252" x="157.669" y="285.5" color-interpolation-filters="sRGB" filterUnits="userSpaceOnUse">
      <feFlood flood-opacity="0" result="BackgroundImageFix"/>
      <feColorMatrix in="SourceAlpha" result="hardAlpha" values="0 0 0 0 0 0 0 0 0 0 0 0 0 0 0 0 0 0 127 0"/>
      <feOffset dy="10"/>
      <feGaussianBlur stdDeviation="2"/>
      <feComposite in2="hardAlpha" operator="out"/>
      <feColorMatrix values="0 0 0 0 0 0 0 0 0 0 0 0 0 0 0 0 0 0 0.2 0"/>
      <feBlend in2="BackgroundImageFix" result="effect1_dropShadow_309_3368"/>
      <feColorMatrix in="SourceAlpha" result="hardAlpha" values="0 0 0 0 0 0 0 0 0 0 0 0 0 0 0 0 0 0 127 0"/>
      <feOffset dx="-10"/>
      <feGaussianBlur stdDeviation="2"/>
      <feComposite in2="hardAlpha" operator="out"/>
      <feColorMatrix values="0 0 0 0 0 0 0 0 0 0 0 0 0 0 0 0 0 0 0.2 0"/>
      <feBlend in2="effect1_dropShadow_309_3368" result="effect2_dropShadow_309_3368"/>
      <feColorMatrix in="SourceAlpha" result="hardAlpha" values="0 0 0 0 0 0 0 0 0 0 0 0 0 0 0 0 0 0 127 0"/>
      <feOffset dx="10"/>
      <feGaussianBlur stdDeviation="2"/>
      <feComposite in2="hardAlpha" operator="out"/>
      <feColorMatrix values="0 0 0 0 0 0 0 0 0 0 0 0 0 0 0 0 0 0 0.2 0"/>
      <feBlend in2="effect2_dropShadow_309_3368" result="effect3_dropShadow_309_3368"/>
      <feBlend in="SourceGraphic" in2="effect3_dropShadow_309_3368" result="shape"/>
    </filter>
    <filter id="filter18_ddd_309_3368" width="361.335" height="403.252" x="324.336" y="382" color-interpolation-filters="sRGB" filterUnits="userSpaceOnUse">
      <feFlood flood-opacity="0" result="BackgroundImageFix"/>
      <feColorMatrix in="SourceAlpha" result="hardAlpha" values="0 0 0 0 0 0 0 0 0 0 0 0 0 0 0 0 0 0 127 0"/>
      <feOffset dy="10"/>
      <feGaussianBlur stdDeviation="2"/>
      <feComposite in2="hardAlpha" operator="out"/>
      <feColorMatrix values="0 0 0 0 0 0 0 0 0 0 0 0 0 0 0 0 0 0 0.2 0"/>
      <feBlend in2="BackgroundImageFix" result="effect1_dropShadow_309_3368"/>
      <feColorMatrix in="SourceAlpha" result="hardAlpha" values="0 0 0 0 0 0 0 0 0 0 0 0 0 0 0 0 0 0 127 0"/>
      <feOffset dx="-10"/>
      <feGaussianBlur stdDeviation="2"/>
      <feComposite in2="hardAlpha" operator="out"/>
      <feColorMatrix values="0 0 0 0 0 0 0 0 0 0 0 0 0 0 0 0 0 0 0.2 0"/>
      <feBlend in2="effect1_dropShadow_309_3368" result="effect2_dropShadow_309_3368"/>
      <feColorMatrix in="SourceAlpha" result="hardAlpha" values="0 0 0 0 0 0 0 0 0 0 0 0 0 0 0 0 0 0 127 0"/>
      <feOffset dx="10"/>
      <feGaussianBlur stdDeviation="2"/>
      <feComposite in2="hardAlpha" operator="out"/>
      <feColorMatrix values="0 0 0 0 0 0 0 0 0 0 0 0 0 0 0 0 0 0 0.2 0"/>
      <feBlend in2="effect2_dropShadow_309_3368" result="effect3_dropShadow_309_3368"/>
      <feBlend in="SourceGraphic" in2="effect3_dropShadow_309_3368" result="shape"/>
    </filter>
  </defs>
</svg>