<svg width="1008" height="1160" viewBox="0 0 1008 1160" fill="none" xmlns="http://www.w3.org/2000/svg">
<g filter="url(#filter0_dd_318_4338)">
<mask id="mask0_318_4338" style="mask-type:alpha" maskUnits="userSpaceOnUse" x="669" y="586" width="334" height="368">
<path d="M806.07 594.852C824.644 584.118 847.536 584.118 866.111 594.852L972.778 656.492C991.331 667.213 1002.76 687.015 1002.76 708.442V831.818C1002.76 853.245 991.331 873.046 972.778 883.767L866.111 945.408C847.536 956.141 824.644 956.141 806.07 945.408L699.402 883.767C680.85 873.046 669.423 853.245 669.423 831.818V708.442C669.423 687.015 680.85 667.214 699.402 656.492L806.07 594.852Z" fill="white"/>
</mask>
<g mask="url(#mask0_318_4338)">
<path d="M821.08 586.178C830.367 580.811 841.813 580.811 851.101 586.178L987.768 665.155C997.044 670.515 1002.76 680.416 1002.76 691.13V849.13C1002.76 859.844 997.044 869.745 987.768 875.105L851.101 954.082C841.813 959.449 830.367 959.449 821.08 954.082L684.413 875.105C675.136 869.745 669.423 859.844 669.423 849.13V691.13C669.423 680.416 675.136 670.515 684.413 665.155L821.08 586.178Z" fill="#F7EC61"/>
<path d="M987.768 665.155L836.09 577.504V910.771C836.09 933.87 861.101 948.303 881.101 936.746L987.768 875.105C997.044 869.745 1002.76 859.844 1002.76 849.13V691.13C1002.76 680.416 997.044 670.515 987.768 665.155Z" fill="#F7EC61"/>
<path d="M684.413 875.105L791.08 936.746C811.08 948.303 836.09 933.87 836.09 910.771V577.504L684.413 665.155C675.136 670.515 669.423 680.416 669.423 691.13V849.13C669.423 859.844 675.136 869.745 684.413 875.105Z" fill="#F7EC61"/>
<path d="M1002.76 866.63V708.661C1002.76 693.261 986.083 683.639 972.75 691.344L866.069 752.992C847.516 763.713 836.089 783.515 836.089 804.942V928.286C836.089 943.686 852.763 953.308 866.096 945.603L1002.76 866.63Z" fill="#FF6B4A"/>
<path d="M669.423 855.088C669.423 862.231 673.232 868.831 679.416 872.405L806.083 945.603C819.417 953.308 836.09 943.686 836.09 928.286V804.942C836.09 783.515 824.663 763.713 806.111 752.992L699.43 691.344C686.096 683.639 669.423 693.261 669.423 708.661V855.088Z" fill="#66BEEC"/>
</g>
</g>
<g filter="url(#filter1_ddd_318_4338)">
<mask id="mask1_318_4338" style="mask-type:alpha" maskUnits="userSpaceOnUse" x="503" y="682" width="334" height="368">
<path d="M640.151 690.604C658.725 679.87 681.617 679.87 700.192 690.604L806.859 752.244C825.412 762.965 836.839 782.767 836.839 804.194V927.57C836.839 948.997 825.412 968.798 806.859 979.519L700.192 1041.16C681.617 1051.89 658.725 1051.89 640.151 1041.16L533.483 979.519C514.931 968.798 503.504 948.997 503.504 927.57V804.194C503.504 782.767 514.931 762.965 533.483 752.244L640.151 690.604Z" fill="white"/>
</mask>
<g mask="url(#mask1_318_4338)">
<path d="M655.161 681.93C664.448 676.563 675.894 676.563 685.182 681.93L821.849 760.907C831.125 766.267 836.839 776.168 836.839 786.881V944.882C836.839 955.596 831.125 965.497 821.849 970.857L685.182 1049.83C675.894 1055.2 664.448 1055.2 655.161 1049.83L518.494 970.857C509.217 965.497 503.504 955.596 503.504 944.882V786.881C503.504 776.168 509.217 766.267 518.494 760.907L655.161 681.93Z" fill="#F7EC61"/>
<path d="M821.849 760.907L670.171 673.256V1006.52C670.171 1029.62 695.182 1044.06 715.182 1032.5L821.849 970.857C831.125 965.497 836.839 955.596 836.839 944.882V786.881C836.839 776.168 831.125 766.267 821.849 760.907Z" fill="#F7EC61"/>
<path d="M518.494 970.857L625.161 1032.5C645.161 1044.06 670.171 1029.62 670.171 1006.52V673.256L518.494 760.907C509.217 766.267 503.504 776.168 503.504 786.882V944.882C503.504 955.596 509.217 965.497 518.494 970.857Z" fill="#F7EC61"/>
<path d="M836.838 962.382V804.413C836.838 789.013 820.164 779.391 806.831 787.096L700.15 848.744C681.597 859.465 670.17 879.267 670.17 900.694V1024.04C670.17 1039.44 686.844 1049.06 700.177 1041.35L836.838 962.382Z" fill="#FF6B4A"/>
<path d="M503.504 950.84C503.504 957.983 507.313 964.583 513.497 968.157L640.165 1041.35C653.498 1049.06 670.171 1039.44 670.171 1024.04V900.694C670.171 879.267 658.744 859.465 640.192 848.744L533.511 787.096C520.177 779.391 503.504 789.013 503.504 804.413V950.84Z" fill="#66BEEC"/>
</g>
</g>
<g filter="url(#filter2_dd_318_4338)">
<mask id="mask2_318_4338" style="mask-type:alpha" maskUnits="userSpaceOnUse" x="4" y="586" width="334" height="368">
<path d="M140.899 594.852C159.474 584.118 182.366 584.118 200.94 594.852L307.608 656.492C326.16 667.213 337.587 687.015 337.587 708.442V831.818C337.587 853.245 326.16 873.046 307.608 883.767L200.94 945.408C182.366 956.141 159.474 956.141 140.899 945.408L34.232 883.767C15.6795 873.046 4.25244 853.245 4.25244 831.818V708.442C4.25244 687.015 15.6795 667.214 34.232 656.492L140.899 594.852Z" fill="white"/>
</mask>
<g mask="url(#mask2_318_4338)">
<path d="M155.91 586.178C165.197 580.811 176.643 580.811 185.93 586.178L322.598 665.155C331.874 670.515 337.587 680.416 337.587 691.13V849.13C337.587 859.844 331.874 869.745 322.598 875.105L185.93 954.082C176.643 959.449 165.197 959.449 155.91 954.082L19.2422 875.105C9.96595 869.745 4.25244 859.844 4.25244 849.13V691.13C4.25244 680.416 9.96595 670.515 19.2422 665.155L155.91 586.178Z" fill="#F7EC61"/>
<path d="M322.598 665.155L170.92 577.504V910.771C170.92 933.87 195.93 948.303 215.93 936.746L322.598 875.105C331.874 869.745 337.587 859.844 337.587 849.13V691.13C337.587 680.416 331.874 670.515 322.598 665.155Z" fill="#F7EC61"/>
<path d="M19.2422 875.105L125.91 936.746C145.91 948.303 170.92 933.87 170.92 910.771V577.504L19.2422 665.155C9.96595 670.515 4.25244 680.416 4.25244 691.13V849.13C4.25244 859.844 9.96595 869.745 19.2422 875.105Z" fill="#F7EC61"/>
<path d="M337.586 866.63V708.661C337.586 693.261 320.913 683.639 307.58 691.344L200.899 752.992C182.346 763.713 170.919 783.515 170.919 804.942V928.286C170.919 943.686 187.592 953.308 200.926 945.603L337.586 866.63Z" fill="#FF6B4A"/>
<path d="M4.25244 855.088C4.25244 862.231 8.06145 868.831 14.2456 872.405L140.913 945.603C154.246 953.308 170.92 943.686 170.92 928.286V804.942C170.92 783.515 159.493 763.713 140.94 752.992L34.2593 691.344C20.9259 683.639 4.25244 693.261 4.25244 708.661V855.088Z" fill="#66BEEC"/>
</g>
</g>
<g filter="url(#filter3_ddd_318_4338)">
<mask id="mask3_318_4338" style="mask-type:alpha" maskUnits="userSpaceOnUse" x="170" y="682" width="335" height="368">
<path d="M307.566 690.604C326.14 679.87 349.032 679.87 367.607 690.604L474.274 752.244C492.827 762.965 504.254 782.767 504.254 804.194V927.57C504.254 948.997 492.827 968.798 474.274 979.519L367.607 1041.16C349.032 1051.89 326.14 1051.89 307.566 1041.16L200.899 979.519C182.346 968.798 170.919 948.997 170.919 927.57V804.194C170.919 782.767 182.346 762.965 200.898 752.244L307.566 690.604Z" fill="white"/>
</mask>
<g mask="url(#mask3_318_4338)">
<path d="M322.576 681.93C331.863 676.563 343.309 676.563 352.597 681.93L489.264 760.907C498.54 766.267 504.254 776.168 504.254 786.881V944.882C504.254 955.596 498.54 965.497 489.264 970.857L352.597 1049.83C343.309 1055.2 331.863 1055.2 322.576 1049.83L185.909 970.857C176.632 965.497 170.919 955.596 170.919 944.882V786.881C170.919 776.168 176.632 766.267 185.909 760.907L322.576 681.93Z" fill="#F7EC61"/>
<path d="M489.264 760.907L337.586 673.256V1006.52C337.586 1029.62 362.597 1044.06 382.597 1032.5L489.264 970.857C498.54 965.497 504.254 955.596 504.254 944.882V786.881C504.254 776.168 498.54 766.267 489.264 760.907Z" fill="#F7EC61"/>
<path d="M185.909 970.857L292.576 1032.5C312.576 1044.06 337.586 1029.62 337.586 1006.52V673.256L185.909 760.907C176.632 766.267 170.919 776.168 170.919 786.882V944.882C170.919 955.596 176.632 965.497 185.909 970.857Z" fill="#F7EC61"/>
<path d="M504.253 962.382V804.413C504.253 789.013 487.579 779.391 474.246 787.096L367.565 848.744C349.012 859.465 337.585 879.267 337.585 900.694V1024.04C337.585 1039.44 354.259 1049.06 367.592 1041.35L504.253 962.382Z" fill="#FF6B4A"/>
<path d="M170.919 950.84C170.919 957.983 174.728 964.583 180.912 968.157L307.58 1041.35C320.913 1049.06 337.586 1039.44 337.586 1024.04V900.694C337.586 879.267 326.159 859.465 307.607 848.744L200.926 787.096C187.592 779.391 170.919 789.013 170.919 804.413V950.84Z" fill="#66BEEC"/>
</g>
</g>
<g filter="url(#filter4_ddd_318_4338)">
<mask id="mask4_318_4338" style="mask-type:alpha" maskUnits="userSpaceOnUse" x="337" y="779" width="334" height="367">
<path d="M474.232 787.104C492.806 776.37 515.698 776.37 534.273 787.104L640.94 848.744C659.493 859.465 670.92 879.267 670.92 900.694V1024.07C670.92 1045.5 659.493 1065.3 640.94 1076.02L534.273 1137.66C515.698 1148.39 492.806 1148.39 474.232 1137.66L367.565 1076.02C349.012 1065.3 337.585 1045.5 337.585 1024.07V900.694C337.585 879.267 349.012 859.465 367.565 848.744L474.232 787.104Z" fill="white"/>
</mask>
<g mask="url(#mask4_318_4338)">
<path d="M489.242 778.43C498.529 773.063 509.975 773.063 519.263 778.43L655.93 857.407C665.206 862.767 670.92 872.668 670.92 883.381V1041.38C670.92 1052.1 665.206 1062 655.93 1067.36L519.263 1146.33C509.975 1151.7 498.529 1151.7 489.242 1146.33L352.575 1067.36C343.298 1062 337.585 1052.1 337.585 1041.38V883.381C337.585 872.668 343.298 862.767 352.575 857.407L489.242 778.43Z" fill="#46CC60"/>
<path d="M655.93 857.407L504.252 769.756V1103.02C504.252 1126.12 529.263 1140.56 549.263 1129L655.93 1067.36C665.206 1062 670.92 1052.1 670.92 1041.38V883.382C670.92 872.668 665.206 862.767 655.93 857.407Z" fill="#46CC60"/>
<path d="M352.575 1067.36L459.242 1129C479.242 1140.56 504.252 1126.12 504.252 1103.02V769.756L352.575 857.407C343.298 862.767 337.585 872.668 337.585 883.382V1041.38C337.585 1052.1 343.298 1062 352.575 1067.36Z" fill="#46CC60"/>
<path d="M670.919 1058.88V900.913C670.919 885.513 654.245 875.891 640.912 883.596L534.231 945.244C515.678 955.965 504.251 975.767 504.251 997.194V1120.54C504.251 1135.94 520.925 1145.56 534.258 1137.85L670.919 1058.88Z" fill="#FF6B4A"/>
<path d="M337.585 1047.34C337.585 1054.48 341.394 1061.08 347.578 1064.66L474.246 1137.85C487.579 1145.56 504.252 1135.94 504.252 1120.54V997.194C504.252 975.767 492.825 955.965 474.273 945.244L367.592 883.596C354.258 875.891 337.585 885.513 337.585 900.913V1047.34Z" fill="#F7EC61"/>
</g>
</g>
<g filter="url(#filter5_dd_318_4338)">
<mask id="mask5_318_4338" style="mask-type:alpha" maskUnits="userSpaceOnUse" x="669" y="394" width="334" height="368">
<path d="M806.07 402.6C824.644 391.866 847.536 391.866 866.111 402.6L972.778 464.241C991.331 474.962 1002.76 494.763 1002.76 516.19V639.566C1002.76 660.993 991.331 680.794 972.778 691.515L866.111 753.156C847.536 763.89 824.644 763.89 806.07 753.156L699.402 691.515C680.85 680.794 669.423 660.993 669.423 639.566V516.19C669.423 494.763 680.85 474.962 699.402 464.241L806.07 402.6Z" fill="white"/>
</mask>
<g mask="url(#mask5_318_4338)">
<path d="M821.08 393.926C830.367 388.559 841.813 388.559 851.101 393.926L987.768 472.903C997.044 478.263 1002.76 488.164 1002.76 498.878V656.878C1002.76 667.592 997.044 677.493 987.768 682.853L851.101 761.83C841.813 767.197 830.367 767.197 821.08 761.83L684.413 682.853C675.136 677.493 669.423 667.592 669.423 656.878V498.878C669.423 488.164 675.136 478.263 684.413 472.903L821.08 393.926Z" fill="#F7EC61"/>
<path d="M987.768 472.903L836.09 385.252V718.519C836.09 741.618 861.101 756.051 881.101 744.494L987.768 682.853C997.044 677.493 1002.76 667.592 1002.76 656.878V498.878C1002.76 488.164 997.044 478.263 987.768 472.903Z" fill="#F7EC61"/>
<path d="M684.413 682.853L791.08 744.494C811.08 756.051 836.09 741.618 836.09 718.519V385.252L684.413 472.903C675.136 478.263 669.423 488.164 669.423 498.878V656.878C669.423 667.592 675.136 677.493 684.413 682.853Z" fill="#F7EC61"/>
<path d="M1002.76 674.378V516.409C1002.76 501.009 986.083 491.387 972.75 499.092L866.069 560.741C847.516 571.462 836.089 591.263 836.089 612.69V736.034C836.089 751.434 852.763 761.056 866.096 753.351L1002.76 674.378Z" fill="#FF6B4A"/>
<path d="M669.423 662.836C669.423 669.979 673.232 676.579 679.416 680.153L806.083 753.351C819.417 761.056 836.09 751.434 836.09 736.034V612.69C836.09 591.263 824.663 571.462 806.111 560.74L699.43 499.092C686.096 491.387 669.423 501.009 669.423 516.409V662.836Z" fill="#66BEEC"/>
</g>
</g>
<g filter="url(#filter6_ddd_318_4338)">
<mask id="mask6_318_4338" style="mask-type:alpha" maskUnits="userSpaceOnUse" x="503" y="490" width="334" height="367">
<path d="M640.151 498.352C658.725 487.618 681.617 487.618 700.192 498.352L806.859 559.992C825.412 570.714 836.839 590.515 836.839 611.942V735.318C836.839 756.745 825.412 776.546 806.859 787.267L700.192 848.908C681.617 859.641 658.725 859.641 640.151 848.908L533.483 787.267C514.931 776.546 503.504 756.745 503.504 735.318V611.942C503.504 590.515 514.931 570.714 533.483 559.992L640.151 498.352Z" fill="white"/>
</mask>
<g mask="url(#mask6_318_4338)">
<path d="M655.161 489.678C664.448 484.311 675.894 484.311 685.182 489.678L821.849 568.655C831.125 574.015 836.839 583.916 836.839 594.63V752.63C836.839 763.344 831.125 773.245 821.849 778.605L685.182 857.582C675.894 862.949 664.448 862.949 655.161 857.582L518.494 778.605C509.217 773.245 503.504 763.344 503.504 752.63V594.63C503.504 583.916 509.217 574.015 518.494 568.655L655.161 489.678Z" fill="#F7EC61"/>
<path d="M821.849 568.655L670.171 481.004V814.271C670.171 837.37 695.182 851.803 715.182 840.246L821.849 778.605C831.125 773.245 836.839 763.344 836.839 752.63V594.63C836.839 583.916 831.125 574.015 821.849 568.655Z" fill="#F7EC61"/>
<path d="M518.494 778.605L625.161 840.246C645.161 851.803 670.171 837.37 670.171 814.271V481.004L518.494 568.655C509.217 574.015 503.504 583.916 503.504 594.63V752.63C503.504 763.344 509.217 773.245 518.494 778.605Z" fill="#F7EC61"/>
<path d="M836.838 770.13V612.161C836.838 596.761 820.164 587.139 806.831 594.844L700.15 656.492C681.597 667.214 670.17 687.015 670.17 708.442V831.786C670.17 847.186 686.844 856.808 700.177 849.103L836.838 770.13Z" fill="#FF6B4A"/>
<path d="M503.504 758.588C503.504 765.731 507.313 772.331 513.497 775.905L640.165 849.103C653.498 856.808 670.171 847.186 670.171 831.786V708.442C670.171 687.015 658.744 667.213 640.192 656.492L533.511 594.844C520.177 587.139 503.504 596.761 503.504 612.161V758.588Z" fill="#66BEEC"/>
</g>
</g>
<g filter="url(#filter7_dd_318_4338)">
<mask id="mask7_318_4338" style="mask-type:alpha" maskUnits="userSpaceOnUse" x="4" y="394" width="334" height="368">
<path d="M140.899 402.6C159.474 391.866 182.366 391.866 200.94 402.6L307.608 464.241C326.16 474.962 337.587 494.763 337.587 516.19V639.566C337.587 660.993 326.16 680.794 307.608 691.515L200.94 753.156C182.366 763.89 159.474 763.89 140.899 753.156L34.232 691.515C15.6795 680.794 4.25244 660.993 4.25244 639.566V516.19C4.25244 494.763 15.6795 474.962 34.232 464.241L140.899 402.6Z" fill="white"/>
</mask>
<g mask="url(#mask7_318_4338)">
<path d="M155.91 393.926C165.197 388.559 176.643 388.559 185.93 393.926L322.598 472.903C331.874 478.263 337.587 488.164 337.587 498.878V656.878C337.587 667.592 331.874 677.493 322.598 682.853L185.93 761.83C176.643 767.197 165.197 767.197 155.91 761.83L19.2422 682.853C9.96595 677.493 4.25244 667.592 4.25244 656.878V498.878C4.25244 488.164 9.96595 478.263 19.2422 472.903L155.91 393.926Z" fill="#F7EC61"/>
<path d="M322.598 472.903L170.92 385.252V718.519C170.92 741.618 195.93 756.051 215.93 744.494L322.598 682.853C331.874 677.493 337.587 667.592 337.587 656.878V498.878C337.587 488.164 331.874 478.263 322.598 472.903Z" fill="#F7EC61"/>
<path d="M19.2422 682.853L125.91 744.494C145.91 756.051 170.92 741.618 170.92 718.519V385.252L19.2422 472.903C9.96595 478.263 4.25244 488.164 4.25244 498.878V656.878C4.25244 667.592 9.96595 677.493 19.2422 682.853Z" fill="#F7EC61"/>
<path d="M337.586 674.378V516.409C337.586 501.009 320.913 491.387 307.58 499.092L200.898 560.741C182.346 571.462 170.919 591.263 170.919 612.69V736.034C170.919 751.434 187.592 761.056 200.926 753.351L337.586 674.378Z" fill="#FF6B4A"/>
<path d="M4.25244 662.836C4.25244 669.979 8.06145 676.579 14.2456 680.153L140.913 753.351C154.246 761.056 170.92 751.434 170.92 736.034V612.69C170.92 591.263 159.493 571.462 140.94 560.74L34.2593 499.092C20.9259 491.387 4.25244 501.009 4.25244 516.409V662.836Z" fill="#66BEEC"/>
</g>
</g>
<g filter="url(#filter8_ddd_318_4338)">
<mask id="mask8_318_4338" style="mask-type:alpha" maskUnits="userSpaceOnUse" x="170" y="490" width="335" height="367">
<path d="M307.566 498.352C326.14 487.618 349.032 487.618 367.607 498.352L474.274 559.992C492.827 570.714 504.254 590.515 504.254 611.942V735.318C504.254 756.745 492.827 776.546 474.274 787.267L367.607 848.908C349.032 859.641 326.14 859.641 307.566 848.908L200.899 787.267C182.346 776.546 170.919 756.745 170.919 735.318V611.942C170.919 590.515 182.346 570.714 200.898 559.992L307.566 498.352Z" fill="white"/>
</mask>
<g mask="url(#mask8_318_4338)">
<path d="M322.576 489.678C331.863 484.311 343.309 484.311 352.597 489.678L489.264 568.655C498.54 574.015 504.254 583.916 504.254 594.63V752.63C504.254 763.344 498.54 773.245 489.264 778.605L352.597 857.582C343.309 862.949 331.863 862.949 322.576 857.582L185.909 778.605C176.632 773.245 170.919 763.344 170.919 752.63V594.63C170.919 583.916 176.632 574.015 185.909 568.655L322.576 489.678Z" fill="#F7EC61"/>
<path d="M489.264 568.655L337.586 481.004V814.271C337.586 837.37 362.597 851.803 382.597 840.246L489.264 778.605C498.54 773.245 504.254 763.344 504.254 752.63V594.63C504.254 583.916 498.54 574.015 489.264 568.655Z" fill="#F7EC61"/>
<path d="M185.909 778.605L292.576 840.246C312.576 851.803 337.586 837.37 337.586 814.271V481.004L185.909 568.655C176.632 574.015 170.919 583.916 170.919 594.63V752.63C170.919 763.344 176.632 773.245 185.909 778.605Z" fill="#F7EC61"/>
<path d="M504.253 770.13V612.161C504.253 596.761 487.579 587.139 474.246 594.844L367.565 656.492C349.012 667.214 337.585 687.015 337.585 708.442V831.786C337.585 847.186 354.259 856.808 367.592 849.103L504.253 770.13Z" fill="#FF6B4A"/>
<path d="M170.919 758.588C170.919 765.731 174.728 772.331 180.912 775.905L307.58 849.103C320.913 856.808 337.586 847.186 337.586 831.786V708.442C337.586 687.015 326.159 667.214 307.607 656.492L200.926 594.844C187.592 587.139 170.919 596.761 170.919 612.161V758.588Z" fill="#66BEEC"/>
</g>
</g>
<g filter="url(#filter9_ddd_318_4338)">
<mask id="mask9_318_4338" style="mask-type:alpha" maskUnits="userSpaceOnUse" x="337" y="586" width="334" height="368">
<path d="M474.232 594.852C492.806 584.118 515.698 584.118 534.273 594.852L640.94 656.492C659.493 667.213 670.92 687.015 670.92 708.442V831.818C670.92 853.245 659.493 873.046 640.94 883.767L534.273 945.408C515.698 956.141 492.806 956.141 474.232 945.408L367.565 883.767C349.012 873.046 337.585 853.245 337.585 831.818V708.442C337.585 687.015 349.012 667.214 367.565 656.492L474.232 594.852Z" fill="white"/>
</mask>
<g mask="url(#mask9_318_4338)">
<path d="M489.242 586.178C498.529 580.811 509.975 580.811 519.263 586.178L655.93 665.155C665.206 670.515 670.92 680.416 670.92 691.13V849.13C670.92 859.844 665.206 869.745 655.93 875.105L519.263 954.082C509.975 959.449 498.529 959.449 489.242 954.082L352.575 875.105C343.298 869.745 337.585 859.844 337.585 849.13V691.13C337.585 680.416 343.298 670.515 352.575 665.155L489.242 586.178Z" fill="#46CC60"/>
<path d="M655.93 665.155L504.252 577.504V910.771C504.252 933.87 529.263 948.303 549.263 936.746L655.93 875.105C665.206 869.745 670.92 859.844 670.92 849.13V691.13C670.92 680.416 665.206 670.515 655.93 665.155Z" fill="#46CC60"/>
<path d="M352.575 875.105L459.242 936.746C479.242 948.303 504.252 933.87 504.252 910.771V577.504L352.575 665.155C343.298 670.515 337.585 680.416 337.585 691.13V849.13C337.585 859.844 343.298 869.745 352.575 875.105Z" fill="#46CC60"/>
<path d="M670.919 866.63V708.661C670.919 693.261 654.245 683.639 640.912 691.344L534.231 752.992C515.678 763.713 504.251 783.515 504.251 804.942V928.286C504.251 943.686 520.925 953.308 534.258 945.603L670.919 866.63Z" fill="#FF6B4A"/>
<path d="M337.585 855.088C337.585 862.231 341.394 868.831 347.578 872.405L474.246 945.603C487.579 953.308 504.252 943.686 504.252 928.286V804.942C504.252 783.515 492.825 763.713 474.273 752.992L367.592 691.344C354.258 683.639 337.585 693.261 337.585 708.661V855.088Z" fill="#F7EC61"/>
</g>
</g>
<g filter="url(#filter10_d_318_4338)">
<mask id="mask10_318_4338" style="mask-type:alpha" maskUnits="userSpaceOnUse" x="338" y="10" width="334" height="367">
<path d="M474.98 18.0961C493.554 7.36242 516.446 7.3624 535.02 18.0961L641.688 79.7366C660.24 90.4576 671.667 110.259 671.667 131.686V255.062C671.667 276.489 660.24 296.29 641.688 307.011L535.02 368.652C516.446 379.386 493.554 379.386 474.98 368.652L368.312 307.011C349.76 296.29 338.333 276.489 338.333 255.062V131.686C338.333 110.259 349.76 90.4576 368.312 79.7366L474.98 18.0961Z" fill="white"/>
</mask>
<g mask="url(#mask10_318_4338)">
<path d="M489.99 9.42209C499.277 4.05523 510.723 4.05522 520.01 9.42208L656.678 88.3988C665.954 93.7593 671.667 103.66 671.667 114.374V272.374C671.667 283.088 665.954 292.989 656.678 298.349L520.01 377.326C510.723 382.693 499.277 382.693 489.99 377.326L353.322 298.349C344.046 292.989 338.333 283.088 338.333 272.374V114.374C338.333 103.66 344.046 93.7593 353.322 88.3988L489.99 9.42209Z" fill="#F7EC61"/>
<path d="M656.678 88.3988L505 0.748047V334.015C505 357.114 530.01 371.547 550.01 359.99L656.678 298.349C665.954 292.989 671.667 283.088 671.667 272.374V114.374C671.667 103.66 665.954 93.7593 656.678 88.3988Z" fill="#F7EC61"/>
<path d="M353.322 298.349L459.99 359.99C479.99 371.547 505 357.114 505 334.015V0.748047L353.322 88.3988C344.046 93.7593 338.333 103.66 338.333 114.374V272.374C338.333 283.088 344.046 292.989 353.322 298.349Z" fill="#F7EC61"/>
<path d="M671.666 289.874V131.905C671.666 116.505 654.993 106.883 641.66 114.588L534.979 176.237C516.426 186.958 504.999 206.759 504.999 228.186V351.53C504.999 366.93 521.673 376.552 535.006 368.847L671.666 289.874Z" fill="#F7EC61"/>
<path d="M338.333 278.332C338.333 285.475 342.142 292.075 348.326 295.649L474.993 368.847C488.326 376.552 505 366.93 505 351.53V228.186C505 206.759 493.573 186.958 475.02 176.237L368.339 114.588C355.006 106.883 338.333 116.505 338.333 131.905V278.332Z" fill="#FF6B4A"/>
</g>
</g>
<g filter="url(#filter11_dd_318_4338)">
<mask id="mask11_318_4338" style="mask-type:alpha" maskUnits="userSpaceOnUse" x="171" y="106" width="335" height="368">
<path d="M308.313 114.596C326.888 103.862 349.78 103.862 368.354 114.596L475.022 176.237C493.574 186.958 505.001 206.759 505.001 228.186V351.562C505.001 372.989 493.574 392.79 475.022 403.511L368.354 465.152C349.78 475.886 326.888 475.886 308.313 465.152L201.646 403.511C183.094 392.79 171.667 372.989 171.667 351.562V228.186C171.667 206.759 183.094 186.958 201.646 176.237L308.313 114.596Z" fill="white"/>
</mask>
<g mask="url(#mask11_318_4338)">
<path d="M323.324 105.922C332.611 100.555 344.057 100.555 353.344 105.922L490.012 184.899C499.288 190.259 505.001 200.16 505.001 210.874V368.874C505.001 379.588 499.288 389.489 490.012 394.849L353.344 473.826C344.057 479.193 332.611 479.193 323.324 473.826L186.656 394.849C177.38 389.489 171.667 379.588 171.667 368.874V210.874C171.667 200.16 177.38 190.259 186.656 184.899L323.324 105.922Z" fill="#F7EC61"/>
<path d="M490.012 184.899L338.334 97.248V430.515C338.334 453.614 363.344 468.047 383.344 456.49L490.012 394.849C499.288 389.489 505.001 379.588 505.001 368.874V210.874C505.001 200.16 499.288 190.259 490.012 184.899Z" fill="#F7EC61"/>
<path d="M186.656 394.849L293.324 456.49C313.324 468.047 338.334 453.614 338.334 430.515V97.248L186.656 184.899C177.38 190.259 171.667 200.16 171.667 210.874V368.874C171.667 379.588 177.38 389.489 186.656 394.849Z" fill="#F7EC61"/>
<path d="M505 386.374V228.405C505 213.005 488.327 203.383 474.994 211.088L368.313 272.737C349.76 283.458 338.333 303.259 338.333 324.686V448.03C338.333 463.43 355.006 473.052 368.34 465.347L505 386.374Z" fill="#F7EC61"/>
<path d="M171.667 374.832C171.667 381.975 175.476 388.575 181.66 392.149L308.327 465.347C321.66 473.052 338.334 463.43 338.334 448.03V324.686C338.334 303.259 326.907 283.458 308.354 272.737L201.673 211.088C188.34 203.383 171.667 213.005 171.667 228.405V374.832Z" fill="#FF6B4A"/>
</g>
</g>
<g filter="url(#filter12_dd_318_4338)">
<mask id="mask12_318_4338" style="mask-type:alpha" maskUnits="userSpaceOnUse" x="503" y="106" width="334" height="368">
<path d="M640.151 114.596C658.725 103.862 681.617 103.862 700.192 114.596L806.859 176.237C825.412 186.958 836.839 206.759 836.839 228.186V351.562C836.839 372.989 825.412 392.79 806.859 403.511L700.192 465.152C681.617 475.886 658.725 475.886 640.151 465.152L533.483 403.511C514.931 392.79 503.504 372.989 503.504 351.562V228.186C503.504 206.759 514.931 186.958 533.483 176.237L640.151 114.596Z" fill="white"/>
</mask>
<g mask="url(#mask12_318_4338)">
<path d="M655.161 105.922C664.448 100.555 675.894 100.555 685.182 105.922L821.849 184.899C831.125 190.259 836.839 200.16 836.839 210.874V368.874C836.839 379.588 831.125 389.489 821.849 394.849L685.182 473.826C675.894 479.193 664.448 479.193 655.161 473.826L518.494 394.849C509.217 389.489 503.504 379.588 503.504 368.874V210.874C503.504 200.16 509.217 190.259 518.494 184.899L655.161 105.922Z" fill="#F7EC61"/>
<path d="M821.849 184.899L670.171 97.248V430.515C670.171 453.614 695.182 468.047 715.182 456.49L821.849 394.849C831.125 389.489 836.839 379.588 836.839 368.874V210.874C836.839 200.16 831.125 190.259 821.849 184.899Z" fill="#F7EC61"/>
<path d="M518.494 394.849L625.161 456.49C645.161 468.047 670.171 453.614 670.171 430.515V97.248L518.494 184.899C509.217 190.259 503.504 200.16 503.504 210.874V368.874C503.504 379.588 509.217 389.489 518.494 394.849Z" fill="#F7EC61"/>
<path d="M836.838 386.374V228.405C836.838 213.005 820.164 203.383 806.831 211.088L700.15 272.737C681.597 283.458 670.17 303.259 670.17 324.686V448.03C670.17 463.43 686.844 473.052 700.177 465.347L836.838 386.374Z" fill="#F7EC61"/>
<path d="M503.504 374.832C503.504 381.975 507.313 388.575 513.497 392.149L640.165 465.347C653.498 473.052 670.171 463.43 670.171 448.03V324.686C670.171 303.259 658.744 283.458 640.192 272.737L533.511 211.088C520.177 203.383 503.504 213.005 503.504 228.405V374.832Z" fill="#FF6B4A"/>
</g>
</g>
<g filter="url(#filter13_dd_318_4338)">
<mask id="mask13_318_4338" style="mask-type:alpha" maskUnits="userSpaceOnUse" x="670" y="203" width="334" height="367">
<path d="M806.817 211.096C825.392 200.362 848.284 200.362 866.858 211.096L973.526 272.737C992.078 283.458 1003.51 303.259 1003.51 324.686V448.062C1003.51 469.489 992.078 489.29 973.526 500.011L866.858 561.652C848.284 572.386 825.392 572.386 806.817 561.652L700.15 500.011C681.597 489.29 670.17 469.489 670.17 448.062V324.686C670.17 303.259 681.597 283.458 700.15 272.737L806.817 211.096Z" fill="white"/>
</mask>
<g mask="url(#mask13_318_4338)">
<path d="M821.828 202.422C831.115 197.055 842.561 197.055 851.848 202.422L988.516 281.399C997.792 286.759 1003.51 296.66 1003.51 307.374V465.374C1003.51 476.088 997.792 485.989 988.516 491.349L851.848 570.326C842.561 575.693 831.115 575.693 821.828 570.326L685.16 491.349C675.884 485.989 670.17 476.088 670.17 465.374V307.374C670.17 296.66 675.884 286.759 685.16 281.399L821.828 202.422Z" fill="#46CC60"/>
<path d="M988.516 281.399L836.838 193.748V527.015C836.838 550.114 861.848 564.547 881.848 552.99L988.516 491.349C997.792 485.989 1003.51 476.088 1003.51 465.374V307.374C1003.51 296.66 997.792 286.759 988.516 281.399Z" fill="#46CC60"/>
<path d="M685.16 491.349L791.828 552.99C811.828 564.547 836.838 550.114 836.838 527.015V193.748L685.16 281.399C675.884 286.759 670.17 296.66 670.17 307.374V465.374C670.17 476.088 675.884 485.989 685.16 491.349Z" fill="#46CC60"/>
<path d="M1003.5 482.874V324.905C1003.5 309.505 986.831 299.883 973.498 307.588L866.816 369.237C848.264 379.958 836.837 399.759 836.837 421.186V544.53C836.837 559.93 853.51 569.552 866.844 561.847L1003.5 482.874Z" fill="#FF6B4A"/>
<path d="M670.17 471.332C670.17 478.475 673.979 485.075 680.164 488.649L806.831 561.847C820.164 569.552 836.838 559.93 836.838 544.53V421.186C836.838 399.759 825.411 379.958 806.858 369.237L700.177 307.588C686.844 299.883 670.17 309.505 670.17 324.905V471.332Z" fill="#FF6B4A"/>
</g>
</g>
<g filter="url(#filter14_ddd_318_4338)">
<mask id="mask14_318_4338" style="mask-type:alpha" maskUnits="userSpaceOnUse" x="338" y="202" width="334" height="367">
<path d="M474.98 210.348C493.554 199.614 516.446 199.614 535.02 210.348L641.688 271.989C660.24 282.71 671.667 302.511 671.667 323.938V447.314C671.667 468.741 660.24 488.542 641.688 499.263L535.02 560.904C516.446 571.638 493.554 571.638 474.98 560.904L368.312 499.263C349.76 488.542 338.333 468.741 338.333 447.314V323.938C338.333 302.511 349.76 282.71 368.312 271.989L474.98 210.348Z" fill="white"/>
</mask>
<g mask="url(#mask14_318_4338)">
<path d="M489.99 201.674C499.277 196.307 510.723 196.307 520.01 201.674L656.678 280.651C665.954 286.011 671.667 295.912 671.667 306.626V464.626C671.667 475.34 665.954 485.241 656.678 490.601L520.01 569.578C510.723 574.945 499.277 574.945 489.99 569.578L353.322 490.601C344.046 485.241 338.333 475.34 338.333 464.626V306.626C338.333 295.912 344.046 286.011 353.322 280.651L489.99 201.674Z" fill="#F7EC61"/>
<path d="M656.678 280.651L505 193V526.267C505 549.366 530.01 563.799 550.01 552.242L656.678 490.601C665.954 485.241 671.667 475.34 671.667 464.626V306.626C671.667 295.912 665.954 286.011 656.678 280.651Z" fill="#F7EC61"/>
<path d="M353.322 490.601L459.99 552.242C479.99 563.799 505 549.366 505 526.267V193L353.322 280.651C344.046 286.011 338.333 295.912 338.333 306.626V464.626C338.333 475.34 344.046 485.241 353.322 490.601Z" fill="#F7EC61"/>
<path d="M671.666 482.126V324.157C671.666 308.757 654.993 299.135 641.66 306.84L534.979 368.489C516.426 379.21 504.999 399.011 504.999 420.438V543.782C504.999 559.182 521.673 568.804 535.006 561.099L671.666 482.126Z" fill="#F7EC61"/>
<path d="M338.333 470.584C338.333 477.727 342.142 484.327 348.326 487.901L474.993 561.099C488.326 568.804 505 559.182 505 543.782V420.438C505 399.011 493.573 379.21 475.02 368.489L368.339 306.84C355.006 299.135 338.333 308.757 338.333 324.157V470.584Z" fill="#FF6B4A"/>
</g>
</g>
<g filter="url(#filter15_ddd_318_4338)">
<mask id="mask15_318_4338" style="mask-type:alpha" maskUnits="userSpaceOnUse" x="504" y="298" width="334" height="368">
<path d="M640.898 306.848C659.473 296.114 682.365 296.114 700.939 306.848L807.607 368.489C826.159 379.21 837.586 399.011 837.586 420.438V543.814C837.586 565.241 826.159 585.042 807.607 595.763L700.939 657.404C682.365 668.138 659.473 668.138 640.898 657.404L534.231 595.763C515.678 585.042 504.251 565.241 504.251 543.814V420.438C504.251 399.011 515.678 379.21 534.231 368.489L640.898 306.848Z" fill="white"/>
</mask>
<g mask="url(#mask15_318_4338)">
<path d="M655.909 298.174C665.196 292.807 676.642 292.807 685.929 298.174L822.597 377.151C831.873 382.511 837.586 392.412 837.586 403.126V561.126C837.586 571.84 831.873 581.741 822.597 587.101L685.929 666.078C676.642 671.445 665.196 671.445 655.909 666.078L519.241 587.101C509.965 581.741 504.251 571.84 504.251 561.126V403.126C504.251 392.412 509.965 382.511 519.241 377.151L655.909 298.174Z" fill="#46CC60"/>
<path d="M822.597 377.151L670.919 289.5V622.767C670.919 645.866 695.929 660.299 715.929 648.742L822.597 587.101C831.873 581.741 837.586 571.84 837.586 561.126V403.126C837.586 392.412 831.873 382.511 822.597 377.151Z" fill="#46CC60"/>
<path d="M519.241 587.101L625.909 648.742C645.909 660.299 670.919 645.866 670.919 622.767V289.5L519.241 377.151C509.965 382.511 504.251 392.412 504.251 403.126V561.126C504.251 571.84 509.965 581.741 519.241 587.101Z" fill="#46CC60"/>
<path d="M837.585 578.626V420.657C837.585 405.257 820.912 395.635 807.579 403.34L700.898 464.989C682.345 475.71 670.918 495.511 670.918 516.938V640.282C670.918 655.682 687.591 665.304 700.925 657.599L837.585 578.626Z" fill="#FF6B4A"/>
<path d="M504.251 567.084C504.251 574.227 508.06 580.827 514.245 584.401L640.912 657.599C654.245 665.304 670.919 655.682 670.919 640.282V516.938C670.919 495.511 659.492 475.71 640.939 464.989L534.258 403.34C520.925 395.635 504.251 405.257 504.251 420.657V567.084Z" fill="#FF6B4A"/>
</g>
</g>
<g filter="url(#filter16_dd_318_4338)">
<mask id="mask16_318_4338" style="mask-type:alpha" maskUnits="userSpaceOnUse" x="5" y="203" width="334" height="367">
<path d="M141.647 211.096C160.221 200.362 183.113 200.362 201.688 211.096L308.355 272.737C326.908 283.458 338.335 303.259 338.335 324.686V448.062C338.335 469.489 326.908 489.29 308.355 500.011L201.688 561.652C183.113 572.386 160.221 572.386 141.647 561.652L34.9796 500.011C16.427 489.29 5 469.489 5 448.062V324.686C5 303.259 16.427 283.458 34.9795 272.737L141.647 211.096Z" fill="white"/>
</mask>
<g mask="url(#mask16_318_4338)">
<path d="M156.657 202.422C165.944 197.055 177.39 197.055 186.678 202.422L323.345 281.399C332.621 286.759 338.335 296.66 338.335 307.374V465.374C338.335 476.088 332.621 485.989 323.345 491.349L186.678 570.326C177.39 575.693 165.944 575.693 156.657 570.326L19.9898 491.349C10.7135 485.989 5 476.088 5 465.374V307.374C5 296.66 10.7135 286.759 19.9898 281.399L156.657 202.422Z" fill="#F7EC61"/>
<path d="M323.345 281.399L171.667 193.748V527.015C171.667 550.114 196.678 564.547 216.678 552.99L323.345 491.349C332.621 485.989 338.335 476.088 338.335 465.374V307.374C338.335 296.66 332.621 286.759 323.345 281.399Z" fill="#F7EC61"/>
<path d="M19.9898 491.349L126.657 552.99C146.657 564.547 171.667 550.114 171.667 527.015V193.748L19.9898 281.399C10.7135 286.759 5 296.66 5 307.374V465.374C5 476.088 10.7135 485.989 19.9898 491.349Z" fill="#F7EC61"/>
<path d="M338.334 482.874V324.905C338.334 309.505 321.66 299.883 308.327 307.588L201.646 369.237C183.094 379.958 171.667 399.759 171.667 421.186V544.53C171.667 559.93 188.34 569.552 201.673 561.847L338.334 482.874Z" fill="#FF6B4A"/>
<path d="M5 471.332C5 478.475 8.80901 485.075 14.9932 488.649L141.661 561.847C154.994 569.552 171.667 559.93 171.667 544.53V421.186C171.667 399.759 160.24 379.958 141.688 369.237L35.0068 307.588C21.6735 299.883 5 309.505 5 324.905V471.332Z" fill="#66BEEC"/>
</g>
</g>
<g filter="url(#filter17_ddd_318_4338)">
<mask id="mask17_318_4338" style="mask-type:alpha" maskUnits="userSpaceOnUse" x="171" y="298" width="335" height="368">
<path d="M308.313 306.848C326.888 296.114 349.78 296.114 368.354 306.848L475.022 368.489C493.574 379.21 505.001 399.011 505.001 420.438V543.814C505.001 565.241 493.574 585.042 475.022 595.763L368.354 657.404C349.78 668.138 326.888 668.138 308.313 657.404L201.646 595.763C183.094 585.042 171.667 565.241 171.667 543.814V420.438C171.667 399.011 183.094 379.21 201.646 368.489L308.313 306.848Z" fill="white"/>
</mask>
<g mask="url(#mask17_318_4338)">
<path d="M323.324 298.174C332.611 292.807 344.057 292.807 353.344 298.174L490.012 377.151C499.288 382.511 505.001 392.412 505.001 403.126V561.126C505.001 571.84 499.288 581.741 490.012 587.101L353.344 666.078C344.057 671.445 332.611 671.445 323.324 666.078L186.656 587.101C177.38 581.741 171.667 571.84 171.667 561.126V403.126C171.667 392.412 177.38 382.511 186.656 377.151L323.324 298.174Z" fill="#F7EC61"/>
<path d="M490.012 377.151L338.334 289.5V622.767C338.334 645.866 363.344 660.299 383.344 648.742L490.012 587.101C499.288 581.741 505.001 571.84 505.001 561.126V403.126C505.001 392.412 499.288 382.511 490.012 377.151Z" fill="#F7EC61"/>
<path d="M186.656 587.101L293.324 648.742C313.324 660.299 338.334 645.866 338.334 622.767V289.5L186.656 377.151C177.38 382.511 171.667 392.412 171.667 403.126V561.126C171.667 571.84 177.38 581.741 186.656 587.101Z" fill="#F7EC61"/>
<path d="M505 578.626V420.657C505 405.257 488.327 395.635 474.994 403.34L368.313 464.989C349.76 475.71 338.333 495.511 338.333 516.938V640.282C338.333 655.682 355.006 665.304 368.34 657.599L505 578.626Z" fill="#FF6B4A"/>
<path d="M171.667 567.084C171.667 574.227 175.476 580.827 181.66 584.401L308.327 657.599C321.66 665.304 338.334 655.682 338.334 640.282V516.938C338.334 495.511 326.907 475.71 308.354 464.989L201.673 403.34C188.34 395.635 171.667 405.257 171.667 420.657V567.084Z" fill="#66BEEC"/>
</g>
</g>
<g filter="url(#filter18_ddd_318_4338)">
<mask id="mask18_318_4338" style="mask-type:alpha" maskUnits="userSpaceOnUse" x="338" y="395" width="334" height="367">
<path d="M474.98 403.348C493.554 392.614 516.446 392.614 535.02 403.348L641.688 464.989C660.24 475.71 671.667 495.511 671.667 516.938V640.314C671.667 661.741 660.24 681.542 641.688 692.263L535.02 753.904C516.446 764.638 493.554 764.638 474.98 753.904L368.312 692.263C349.76 681.542 338.333 661.741 338.333 640.314V516.938C338.333 495.511 349.76 475.71 368.312 464.989L474.98 403.348Z" fill="white"/>
</mask>
<g mask="url(#mask18_318_4338)">
<path d="M489.99 394.674C499.277 389.307 510.723 389.307 520.01 394.674L656.678 473.651C665.954 479.011 671.667 488.912 671.667 499.626V657.626C671.667 668.34 665.954 678.241 656.678 683.601L520.01 762.578C510.723 767.945 499.277 767.945 489.99 762.578L353.322 683.601C344.046 678.241 338.333 668.34 338.333 657.626V499.626C338.333 488.912 344.046 479.011 353.322 473.651L489.99 394.674Z" fill="#46CC60"/>
<path d="M656.678 473.651L505 386V719.267C505 742.366 530.01 756.799 550.01 745.242L656.678 683.601C665.954 678.241 671.667 668.34 671.667 657.626V499.626C671.667 488.912 665.954 479.011 656.678 473.651Z" fill="#46CC60"/>
<path d="M353.322 683.601L459.99 745.242C479.99 756.799 505 742.366 505 719.267V386L353.322 473.651C344.046 479.011 338.333 488.912 338.333 499.626V657.626C338.333 668.34 344.046 678.241 353.322 683.601Z" fill="#46CC60"/>
<path d="M671.666 675.126V517.157C671.666 501.757 654.993 492.135 641.66 499.84L534.979 561.489C516.426 572.21 504.999 592.011 504.999 613.438V736.782C504.999 752.182 521.673 761.804 535.006 754.099L671.666 675.126Z" fill="#FF6B4A"/>
<path d="M338.333 663.584C338.333 670.727 342.142 677.327 348.326 680.901L474.993 754.099C488.326 761.804 505 752.182 505 736.782V613.438C505 592.011 493.573 572.21 475.02 561.489L368.339 499.84C355.006 492.135 338.333 501.757 338.333 517.157V663.584Z" fill="#F7EC61"/>
</g>
</g>
<path d="M413.801 527.306L643.608 391" stroke="black" stroke-width="20" stroke-linecap="round"/>
<path d="M413.801 992.417V528.787" stroke="black" stroke-width="20" stroke-linecap="round"/>
<path d="M406.471 1058.55L449.134 981.58L382.663 944.735L406.471 1058.55Z" fill="black"/>
<defs>
<filter id="filter0_dd_318_4338" x="655.423" y="573.504" width="351.335" height="403.252" filterUnits="userSpaceOnUse" color-interpolation-filters="sRGB">
<feFlood flood-opacity="0" result="BackgroundImageFix"/>
<feColorMatrix in="SourceAlpha" type="matrix" values="0 0 0 0 0 0 0 0 0 0 0 0 0 0 0 0 0 0 127 0" result="hardAlpha"/>
<feOffset dy="10"/>
<feGaussianBlur stdDeviation="2"/>
<feComposite in2="hardAlpha" operator="out"/>
<feColorMatrix type="matrix" values="0 0 0 0 0 0 0 0 0 0 0 0 0 0 0 0 0 0 0.2 0"/>
<feBlend mode="normal" in2="BackgroundImageFix" result="effect1_dropShadow_318_4338"/>
<feColorMatrix in="SourceAlpha" type="matrix" values="0 0 0 0 0 0 0 0 0 0 0 0 0 0 0 0 0 0 127 0" result="hardAlpha"/>
<feOffset dx="-10"/>
<feGaussianBlur stdDeviation="2"/>
<feComposite in2="hardAlpha" operator="out"/>
<feColorMatrix type="matrix" values="0 0 0 0 0 0 0 0 0 0 0 0 0 0 0 0 0 0 0.2 0"/>
<feBlend mode="normal" in2="effect1_dropShadow_318_4338" result="effect2_dropShadow_318_4338"/>
<feBlend mode="normal" in="SourceGraphic" in2="effect2_dropShadow_318_4338" result="shape"/>
</filter>
<filter id="filter1_ddd_318_4338" x="489.504" y="669.256" width="361.335" height="403.252" filterUnits="userSpaceOnUse" color-interpolation-filters="sRGB">
<feFlood flood-opacity="0" result="BackgroundImageFix"/>
<feColorMatrix in="SourceAlpha" type="matrix" values="0 0 0 0 0 0 0 0 0 0 0 0 0 0 0 0 0 0 127 0" result="hardAlpha"/>
<feOffset dy="10"/>
<feGaussianBlur stdDeviation="2"/>
<feComposite in2="hardAlpha" operator="out"/>
<feColorMatrix type="matrix" values="0 0 0 0 0 0 0 0 0 0 0 0 0 0 0 0 0 0 0.2 0"/>
<feBlend mode="normal" in2="BackgroundImageFix" result="effect1_dropShadow_318_4338"/>
<feColorMatrix in="SourceAlpha" type="matrix" values="0 0 0 0 0 0 0 0 0 0 0 0 0 0 0 0 0 0 127 0" result="hardAlpha"/>
<feOffset dx="-10"/>
<feGaussianBlur stdDeviation="2"/>
<feComposite in2="hardAlpha" operator="out"/>
<feColorMatrix type="matrix" values="0 0 0 0 0 0 0 0 0 0 0 0 0 0 0 0 0 0 0.2 0"/>
<feBlend mode="normal" in2="effect1_dropShadow_318_4338" result="effect2_dropShadow_318_4338"/>
<feColorMatrix in="SourceAlpha" type="matrix" values="0 0 0 0 0 0 0 0 0 0 0 0 0 0 0 0 0 0 127 0" result="hardAlpha"/>
<feOffset dx="10"/>
<feGaussianBlur stdDeviation="2"/>
<feComposite in2="hardAlpha" operator="out"/>
<feColorMatrix type="matrix" values="0 0 0 0 0 0 0 0 0 0 0 0 0 0 0 0 0 0 0.2 0"/>
<feBlend mode="normal" in2="effect2_dropShadow_318_4338" result="effect3_dropShadow_318_4338"/>
<feBlend mode="normal" in="SourceGraphic" in2="effect3_dropShadow_318_4338" result="shape"/>
</filter>
<filter id="filter2_dd_318_4338" x="0.252441" y="573.504" width="351.335" height="403.252" filterUnits="userSpaceOnUse" color-interpolation-filters="sRGB">
<feFlood flood-opacity="0" result="BackgroundImageFix"/>
<feColorMatrix in="SourceAlpha" type="matrix" values="0 0 0 0 0 0 0 0 0 0 0 0 0 0 0 0 0 0 127 0" result="hardAlpha"/>
<feOffset dy="10"/>
<feGaussianBlur stdDeviation="2"/>
<feComposite in2="hardAlpha" operator="out"/>
<feColorMatrix type="matrix" values="0 0 0 0 0 0 0 0 0 0 0 0 0 0 0 0 0 0 0.2 0"/>
<feBlend mode="normal" in2="BackgroundImageFix" result="effect1_dropShadow_318_4338"/>
<feColorMatrix in="SourceAlpha" type="matrix" values="0 0 0 0 0 0 0 0 0 0 0 0 0 0 0 0 0 0 127 0" result="hardAlpha"/>
<feOffset dx="10"/>
<feGaussianBlur stdDeviation="2"/>
<feComposite in2="hardAlpha" operator="out"/>
<feColorMatrix type="matrix" values="0 0 0 0 0 0 0 0 0 0 0 0 0 0 0 0 0 0 0.2 0"/>
<feBlend mode="normal" in2="effect1_dropShadow_318_4338" result="effect2_dropShadow_318_4338"/>
<feBlend mode="normal" in="SourceGraphic" in2="effect2_dropShadow_318_4338" result="shape"/>
</filter>
<filter id="filter3_ddd_318_4338" x="156.919" y="669.256" width="361.335" height="403.252" filterUnits="userSpaceOnUse" color-interpolation-filters="sRGB">
<feFlood flood-opacity="0" result="BackgroundImageFix"/>
<feColorMatrix in="SourceAlpha" type="matrix" values="0 0 0 0 0 0 0 0 0 0 0 0 0 0 0 0 0 0 127 0" result="hardAlpha"/>
<feOffset dy="10"/>
<feGaussianBlur stdDeviation="2"/>
<feComposite in2="hardAlpha" operator="out"/>
<feColorMatrix type="matrix" values="0 0 0 0 0 0 0 0 0 0 0 0 0 0 0 0 0 0 0.2 0"/>
<feBlend mode="normal" in2="BackgroundImageFix" result="effect1_dropShadow_318_4338"/>
<feColorMatrix in="SourceAlpha" type="matrix" values="0 0 0 0 0 0 0 0 0 0 0 0 0 0 0 0 0 0 127 0" result="hardAlpha"/>
<feOffset dx="-10"/>
<feGaussianBlur stdDeviation="2"/>
<feComposite in2="hardAlpha" operator="out"/>
<feColorMatrix type="matrix" values="0 0 0 0 0 0 0 0 0 0 0 0 0 0 0 0 0 0 0.2 0"/>
<feBlend mode="normal" in2="effect1_dropShadow_318_4338" result="effect2_dropShadow_318_4338"/>
<feColorMatrix in="SourceAlpha" type="matrix" values="0 0 0 0 0 0 0 0 0 0 0 0 0 0 0 0 0 0 127 0" result="hardAlpha"/>
<feOffset dx="10"/>
<feGaussianBlur stdDeviation="2"/>
<feComposite in2="hardAlpha" operator="out"/>
<feColorMatrix type="matrix" values="0 0 0 0 0 0 0 0 0 0 0 0 0 0 0 0 0 0 0.2 0"/>
<feBlend mode="normal" in2="effect2_dropShadow_318_4338" result="effect3_dropShadow_318_4338"/>
<feBlend mode="normal" in="SourceGraphic" in2="effect3_dropShadow_318_4338" result="shape"/>
</filter>
<filter id="filter4_ddd_318_4338" x="323.585" y="765.756" width="361.335" height="403.252" filterUnits="userSpaceOnUse" color-interpolation-filters="sRGB">
<feFlood flood-opacity="0" result="BackgroundImageFix"/>
<feColorMatrix in="SourceAlpha" type="matrix" values="0 0 0 0 0 0 0 0 0 0 0 0 0 0 0 0 0 0 127 0" result="hardAlpha"/>
<feOffset dy="10"/>
<feGaussianBlur stdDeviation="2"/>
<feComposite in2="hardAlpha" operator="out"/>
<feColorMatrix type="matrix" values="0 0 0 0 0 0 0 0 0 0 0 0 0 0 0 0 0 0 0.2 0"/>
<feBlend mode="normal" in2="BackgroundImageFix" result="effect1_dropShadow_318_4338"/>
<feColorMatrix in="SourceAlpha" type="matrix" values="0 0 0 0 0 0 0 0 0 0 0 0 0 0 0 0 0 0 127 0" result="hardAlpha"/>
<feOffset dx="-10"/>
<feGaussianBlur stdDeviation="2"/>
<feComposite in2="hardAlpha" operator="out"/>
<feColorMatrix type="matrix" values="0 0 0 0 0 0 0 0 0 0 0 0 0 0 0 0 0 0 0.2 0"/>
<feBlend mode="normal" in2="effect1_dropShadow_318_4338" result="effect2_dropShadow_318_4338"/>
<feColorMatrix in="SourceAlpha" type="matrix" values="0 0 0 0 0 0 0 0 0 0 0 0 0 0 0 0 0 0 127 0" result="hardAlpha"/>
<feOffset dx="10"/>
<feGaussianBlur stdDeviation="2"/>
<feComposite in2="hardAlpha" operator="out"/>
<feColorMatrix type="matrix" values="0 0 0 0 0 0 0 0 0 0 0 0 0 0 0 0 0 0 0.2 0"/>
<feBlend mode="normal" in2="effect2_dropShadow_318_4338" result="effect3_dropShadow_318_4338"/>
<feBlend mode="normal" in="SourceGraphic" in2="effect3_dropShadow_318_4338" result="shape"/>
</filter>
<filter id="filter5_dd_318_4338" x="655.423" y="381.252" width="351.335" height="403.252" filterUnits="userSpaceOnUse" color-interpolation-filters="sRGB">
<feFlood flood-opacity="0" result="BackgroundImageFix"/>
<feColorMatrix in="SourceAlpha" type="matrix" values="0 0 0 0 0 0 0 0 0 0 0 0 0 0 0 0 0 0 127 0" result="hardAlpha"/>
<feOffset dy="10"/>
<feGaussianBlur stdDeviation="2"/>
<feComposite in2="hardAlpha" operator="out"/>
<feColorMatrix type="matrix" values="0 0 0 0 0 0 0 0 0 0 0 0 0 0 0 0 0 0 0.2 0"/>
<feBlend mode="normal" in2="BackgroundImageFix" result="effect1_dropShadow_318_4338"/>
<feColorMatrix in="SourceAlpha" type="matrix" values="0 0 0 0 0 0 0 0 0 0 0 0 0 0 0 0 0 0 127 0" result="hardAlpha"/>
<feOffset dx="-10"/>
<feGaussianBlur stdDeviation="2"/>
<feComposite in2="hardAlpha" operator="out"/>
<feColorMatrix type="matrix" values="0 0 0 0 0 0 0 0 0 0 0 0 0 0 0 0 0 0 0.2 0"/>
<feBlend mode="normal" in2="effect1_dropShadow_318_4338" result="effect2_dropShadow_318_4338"/>
<feBlend mode="normal" in="SourceGraphic" in2="effect2_dropShadow_318_4338" result="shape"/>
</filter>
<filter id="filter6_ddd_318_4338" x="489.504" y="477.004" width="361.335" height="403.252" filterUnits="userSpaceOnUse" color-interpolation-filters="sRGB">
<feFlood flood-opacity="0" result="BackgroundImageFix"/>
<feColorMatrix in="SourceAlpha" type="matrix" values="0 0 0 0 0 0 0 0 0 0 0 0 0 0 0 0 0 0 127 0" result="hardAlpha"/>
<feOffset dy="10"/>
<feGaussianBlur stdDeviation="2"/>
<feComposite in2="hardAlpha" operator="out"/>
<feColorMatrix type="matrix" values="0 0 0 0 0 0 0 0 0 0 0 0 0 0 0 0 0 0 0.2 0"/>
<feBlend mode="normal" in2="BackgroundImageFix" result="effect1_dropShadow_318_4338"/>
<feColorMatrix in="SourceAlpha" type="matrix" values="0 0 0 0 0 0 0 0 0 0 0 0 0 0 0 0 0 0 127 0" result="hardAlpha"/>
<feOffset dx="-10"/>
<feGaussianBlur stdDeviation="2"/>
<feComposite in2="hardAlpha" operator="out"/>
<feColorMatrix type="matrix" values="0 0 0 0 0 0 0 0 0 0 0 0 0 0 0 0 0 0 0.2 0"/>
<feBlend mode="normal" in2="effect1_dropShadow_318_4338" result="effect2_dropShadow_318_4338"/>
<feColorMatrix in="SourceAlpha" type="matrix" values="0 0 0 0 0 0 0 0 0 0 0 0 0 0 0 0 0 0 127 0" result="hardAlpha"/>
<feOffset dx="10"/>
<feGaussianBlur stdDeviation="2"/>
<feComposite in2="hardAlpha" operator="out"/>
<feColorMatrix type="matrix" values="0 0 0 0 0 0 0 0 0 0 0 0 0 0 0 0 0 0 0.2 0"/>
<feBlend mode="normal" in2="effect2_dropShadow_318_4338" result="effect3_dropShadow_318_4338"/>
<feBlend mode="normal" in="SourceGraphic" in2="effect3_dropShadow_318_4338" result="shape"/>
</filter>
<filter id="filter7_dd_318_4338" x="0.252441" y="381.252" width="351.335" height="403.252" filterUnits="userSpaceOnUse" color-interpolation-filters="sRGB">
<feFlood flood-opacity="0" result="BackgroundImageFix"/>
<feColorMatrix in="SourceAlpha" type="matrix" values="0 0 0 0 0 0 0 0 0 0 0 0 0 0 0 0 0 0 127 0" result="hardAlpha"/>
<feOffset dy="10"/>
<feGaussianBlur stdDeviation="2"/>
<feComposite in2="hardAlpha" operator="out"/>
<feColorMatrix type="matrix" values="0 0 0 0 0 0 0 0 0 0 0 0 0 0 0 0 0 0 0.2 0"/>
<feBlend mode="normal" in2="BackgroundImageFix" result="effect1_dropShadow_318_4338"/>
<feColorMatrix in="SourceAlpha" type="matrix" values="0 0 0 0 0 0 0 0 0 0 0 0 0 0 0 0 0 0 127 0" result="hardAlpha"/>
<feOffset dx="10"/>
<feGaussianBlur stdDeviation="2"/>
<feComposite in2="hardAlpha" operator="out"/>
<feColorMatrix type="matrix" values="0 0 0 0 0 0 0 0 0 0 0 0 0 0 0 0 0 0 0.2 0"/>
<feBlend mode="normal" in2="effect1_dropShadow_318_4338" result="effect2_dropShadow_318_4338"/>
<feBlend mode="normal" in="SourceGraphic" in2="effect2_dropShadow_318_4338" result="shape"/>
</filter>
<filter id="filter8_ddd_318_4338" x="156.919" y="477.004" width="361.335" height="403.252" filterUnits="userSpaceOnUse" color-interpolation-filters="sRGB">
<feFlood flood-opacity="0" result="BackgroundImageFix"/>
<feColorMatrix in="SourceAlpha" type="matrix" values="0 0 0 0 0 0 0 0 0 0 0 0 0 0 0 0 0 0 127 0" result="hardAlpha"/>
<feOffset dy="10"/>
<feGaussianBlur stdDeviation="2"/>
<feComposite in2="hardAlpha" operator="out"/>
<feColorMatrix type="matrix" values="0 0 0 0 0 0 0 0 0 0 0 0 0 0 0 0 0 0 0.2 0"/>
<feBlend mode="normal" in2="BackgroundImageFix" result="effect1_dropShadow_318_4338"/>
<feColorMatrix in="SourceAlpha" type="matrix" values="0 0 0 0 0 0 0 0 0 0 0 0 0 0 0 0 0 0 127 0" result="hardAlpha"/>
<feOffset dx="-10"/>
<feGaussianBlur stdDeviation="2"/>
<feComposite in2="hardAlpha" operator="out"/>
<feColorMatrix type="matrix" values="0 0 0 0 0 0 0 0 0 0 0 0 0 0 0 0 0 0 0.2 0"/>
<feBlend mode="normal" in2="effect1_dropShadow_318_4338" result="effect2_dropShadow_318_4338"/>
<feColorMatrix in="SourceAlpha" type="matrix" values="0 0 0 0 0 0 0 0 0 0 0 0 0 0 0 0 0 0 127 0" result="hardAlpha"/>
<feOffset dx="10"/>
<feGaussianBlur stdDeviation="2"/>
<feComposite in2="hardAlpha" operator="out"/>
<feColorMatrix type="matrix" values="0 0 0 0 0 0 0 0 0 0 0 0 0 0 0 0 0 0 0.2 0"/>
<feBlend mode="normal" in2="effect2_dropShadow_318_4338" result="effect3_dropShadow_318_4338"/>
<feBlend mode="normal" in="SourceGraphic" in2="effect3_dropShadow_318_4338" result="shape"/>
</filter>
<filter id="filter9_ddd_318_4338" x="323.585" y="573.504" width="361.335" height="403.252" filterUnits="userSpaceOnUse" color-interpolation-filters="sRGB">
<feFlood flood-opacity="0" result="BackgroundImageFix"/>
<feColorMatrix in="SourceAlpha" type="matrix" values="0 0 0 0 0 0 0 0 0 0 0 0 0 0 0 0 0 0 127 0" result="hardAlpha"/>
<feOffset dy="10"/>
<feGaussianBlur stdDeviation="2"/>
<feComposite in2="hardAlpha" operator="out"/>
<feColorMatrix type="matrix" values="0 0 0 0 0 0 0 0 0 0 0 0 0 0 0 0 0 0 0.2 0"/>
<feBlend mode="normal" in2="BackgroundImageFix" result="effect1_dropShadow_318_4338"/>
<feColorMatrix in="SourceAlpha" type="matrix" values="0 0 0 0 0 0 0 0 0 0 0 0 0 0 0 0 0 0 127 0" result="hardAlpha"/>
<feOffset dx="-10"/>
<feGaussianBlur stdDeviation="2"/>
<feComposite in2="hardAlpha" operator="out"/>
<feColorMatrix type="matrix" values="0 0 0 0 0 0 0 0 0 0 0 0 0 0 0 0 0 0 0.2 0"/>
<feBlend mode="normal" in2="effect1_dropShadow_318_4338" result="effect2_dropShadow_318_4338"/>
<feColorMatrix in="SourceAlpha" type="matrix" values="0 0 0 0 0 0 0 0 0 0 0 0 0 0 0 0 0 0 127 0" result="hardAlpha"/>
<feOffset dx="10"/>
<feGaussianBlur stdDeviation="2"/>
<feComposite in2="hardAlpha" operator="out"/>
<feColorMatrix type="matrix" values="0 0 0 0 0 0 0 0 0 0 0 0 0 0 0 0 0 0 0.2 0"/>
<feBlend mode="normal" in2="effect2_dropShadow_318_4338" result="effect3_dropShadow_318_4338"/>
<feBlend mode="normal" in="SourceGraphic" in2="effect3_dropShadow_318_4338" result="shape"/>
</filter>
<filter id="filter10_d_318_4338" x="334.333" y="0.748047" width="341.335" height="399.252" filterUnits="userSpaceOnUse" color-interpolation-filters="sRGB">
<feFlood flood-opacity="0" result="BackgroundImageFix"/>
<feColorMatrix in="SourceAlpha" type="matrix" values="0 0 0 0 0 0 0 0 0 0 0 0 0 0 0 0 0 0 127 0" result="hardAlpha"/>
<feOffset dy="10"/>
<feGaussianBlur stdDeviation="2"/>
<feComposite in2="hardAlpha" operator="out"/>
<feColorMatrix type="matrix" values="0 0 0 0 0 0 0 0 0 0 0 0 0 0 0 0 0 0 0.2 0"/>
<feBlend mode="normal" in2="BackgroundImageFix" result="effect1_dropShadow_318_4338"/>
<feBlend mode="normal" in="SourceGraphic" in2="effect1_dropShadow_318_4338" result="shape"/>
</filter>
<filter id="filter11_dd_318_4338" x="167.667" y="93.248" width="351.335" height="403.252" filterUnits="userSpaceOnUse" color-interpolation-filters="sRGB">
<feFlood flood-opacity="0" result="BackgroundImageFix"/>
<feColorMatrix in="SourceAlpha" type="matrix" values="0 0 0 0 0 0 0 0 0 0 0 0 0 0 0 0 0 0 127 0" result="hardAlpha"/>
<feOffset dy="10"/>
<feGaussianBlur stdDeviation="2"/>
<feComposite in2="hardAlpha" operator="out"/>
<feColorMatrix type="matrix" values="0 0 0 0 0 0 0 0 0 0 0 0 0 0 0 0 0 0 0.2 0"/>
<feBlend mode="normal" in2="BackgroundImageFix" result="effect1_dropShadow_318_4338"/>
<feColorMatrix in="SourceAlpha" type="matrix" values="0 0 0 0 0 0 0 0 0 0 0 0 0 0 0 0 0 0 127 0" result="hardAlpha"/>
<feOffset dx="10"/>
<feGaussianBlur stdDeviation="2"/>
<feComposite in2="hardAlpha" operator="out"/>
<feColorMatrix type="matrix" values="0 0 0 0 0 0 0 0 0 0 0 0 0 0 0 0 0 0 0.2 0"/>
<feBlend mode="normal" in2="effect1_dropShadow_318_4338" result="effect2_dropShadow_318_4338"/>
<feBlend mode="normal" in="SourceGraphic" in2="effect2_dropShadow_318_4338" result="shape"/>
</filter>
<filter id="filter12_dd_318_4338" x="489.504" y="93.248" width="351.335" height="403.252" filterUnits="userSpaceOnUse" color-interpolation-filters="sRGB">
<feFlood flood-opacity="0" result="BackgroundImageFix"/>
<feColorMatrix in="SourceAlpha" type="matrix" values="0 0 0 0 0 0 0 0 0 0 0 0 0 0 0 0 0 0 127 0" result="hardAlpha"/>
<feOffset dy="10"/>
<feGaussianBlur stdDeviation="2"/>
<feComposite in2="hardAlpha" operator="out"/>
<feColorMatrix type="matrix" values="0 0 0 0 0 0 0 0 0 0 0 0 0 0 0 0 0 0 0.2 0"/>
<feBlend mode="normal" in2="BackgroundImageFix" result="effect1_dropShadow_318_4338"/>
<feColorMatrix in="SourceAlpha" type="matrix" values="0 0 0 0 0 0 0 0 0 0 0 0 0 0 0 0 0 0 127 0" result="hardAlpha"/>
<feOffset dx="-10"/>
<feGaussianBlur stdDeviation="2"/>
<feComposite in2="hardAlpha" operator="out"/>
<feColorMatrix type="matrix" values="0 0 0 0 0 0 0 0 0 0 0 0 0 0 0 0 0 0 0.2 0"/>
<feBlend mode="normal" in2="effect1_dropShadow_318_4338" result="effect2_dropShadow_318_4338"/>
<feBlend mode="normal" in="SourceGraphic" in2="effect2_dropShadow_318_4338" result="shape"/>
</filter>
<filter id="filter13_dd_318_4338" x="656.17" y="189.748" width="351.335" height="403.252" filterUnits="userSpaceOnUse" color-interpolation-filters="sRGB">
<feFlood flood-opacity="0" result="BackgroundImageFix"/>
<feColorMatrix in="SourceAlpha" type="matrix" values="0 0 0 0 0 0 0 0 0 0 0 0 0 0 0 0 0 0 127 0" result="hardAlpha"/>
<feOffset dy="10"/>
<feGaussianBlur stdDeviation="2"/>
<feComposite in2="hardAlpha" operator="out"/>
<feColorMatrix type="matrix" values="0 0 0 0 0 0 0 0 0 0 0 0 0 0 0 0 0 0 0.2 0"/>
<feBlend mode="normal" in2="BackgroundImageFix" result="effect1_dropShadow_318_4338"/>
<feColorMatrix in="SourceAlpha" type="matrix" values="0 0 0 0 0 0 0 0 0 0 0 0 0 0 0 0 0 0 127 0" result="hardAlpha"/>
<feOffset dx="-10"/>
<feGaussianBlur stdDeviation="2"/>
<feComposite in2="hardAlpha" operator="out"/>
<feColorMatrix type="matrix" values="0 0 0 0 0 0 0 0 0 0 0 0 0 0 0 0 0 0 0.2 0"/>
<feBlend mode="normal" in2="effect1_dropShadow_318_4338" result="effect2_dropShadow_318_4338"/>
<feBlend mode="normal" in="SourceGraphic" in2="effect2_dropShadow_318_4338" result="shape"/>
</filter>
<filter id="filter14_ddd_318_4338" x="324.333" y="189" width="361.335" height="403.252" filterUnits="userSpaceOnUse" color-interpolation-filters="sRGB">
<feFlood flood-opacity="0" result="BackgroundImageFix"/>
<feColorMatrix in="SourceAlpha" type="matrix" values="0 0 0 0 0 0 0 0 0 0 0 0 0 0 0 0 0 0 127 0" result="hardAlpha"/>
<feOffset dy="10"/>
<feGaussianBlur stdDeviation="2"/>
<feComposite in2="hardAlpha" operator="out"/>
<feColorMatrix type="matrix" values="0 0 0 0 0 0 0 0 0 0 0 0 0 0 0 0 0 0 0.2 0"/>
<feBlend mode="normal" in2="BackgroundImageFix" result="effect1_dropShadow_318_4338"/>
<feColorMatrix in="SourceAlpha" type="matrix" values="0 0 0 0 0 0 0 0 0 0 0 0 0 0 0 0 0 0 127 0" result="hardAlpha"/>
<feOffset dx="-10"/>
<feGaussianBlur stdDeviation="2"/>
<feComposite in2="hardAlpha" operator="out"/>
<feColorMatrix type="matrix" values="0 0 0 0 0 0 0 0 0 0 0 0 0 0 0 0 0 0 0.2 0"/>
<feBlend mode="normal" in2="effect1_dropShadow_318_4338" result="effect2_dropShadow_318_4338"/>
<feColorMatrix in="SourceAlpha" type="matrix" values="0 0 0 0 0 0 0 0 0 0 0 0 0 0 0 0 0 0 127 0" result="hardAlpha"/>
<feOffset dx="10"/>
<feGaussianBlur stdDeviation="2"/>
<feComposite in2="hardAlpha" operator="out"/>
<feColorMatrix type="matrix" values="0 0 0 0 0 0 0 0 0 0 0 0 0 0 0 0 0 0 0.2 0"/>
<feBlend mode="normal" in2="effect2_dropShadow_318_4338" result="effect3_dropShadow_318_4338"/>
<feBlend mode="normal" in="SourceGraphic" in2="effect3_dropShadow_318_4338" result="shape"/>
</filter>
<filter id="filter15_ddd_318_4338" x="490.251" y="285.5" width="361.335" height="403.252" filterUnits="userSpaceOnUse" color-interpolation-filters="sRGB">
<feFlood flood-opacity="0" result="BackgroundImageFix"/>
<feColorMatrix in="SourceAlpha" type="matrix" values="0 0 0 0 0 0 0 0 0 0 0 0 0 0 0 0 0 0 127 0" result="hardAlpha"/>
<feOffset dy="10"/>
<feGaussianBlur stdDeviation="2"/>
<feComposite in2="hardAlpha" operator="out"/>
<feColorMatrix type="matrix" values="0 0 0 0 0 0 0 0 0 0 0 0 0 0 0 0 0 0 0.2 0"/>
<feBlend mode="normal" in2="BackgroundImageFix" result="effect1_dropShadow_318_4338"/>
<feColorMatrix in="SourceAlpha" type="matrix" values="0 0 0 0 0 0 0 0 0 0 0 0 0 0 0 0 0 0 127 0" result="hardAlpha"/>
<feOffset dx="-10"/>
<feGaussianBlur stdDeviation="2"/>
<feComposite in2="hardAlpha" operator="out"/>
<feColorMatrix type="matrix" values="0 0 0 0 0 0 0 0 0 0 0 0 0 0 0 0 0 0 0.2 0"/>
<feBlend mode="normal" in2="effect1_dropShadow_318_4338" result="effect2_dropShadow_318_4338"/>
<feColorMatrix in="SourceAlpha" type="matrix" values="0 0 0 0 0 0 0 0 0 0 0 0 0 0 0 0 0 0 127 0" result="hardAlpha"/>
<feOffset dx="10"/>
<feGaussianBlur stdDeviation="2"/>
<feComposite in2="hardAlpha" operator="out"/>
<feColorMatrix type="matrix" values="0 0 0 0 0 0 0 0 0 0 0 0 0 0 0 0 0 0 0.2 0"/>
<feBlend mode="normal" in2="effect2_dropShadow_318_4338" result="effect3_dropShadow_318_4338"/>
<feBlend mode="normal" in="SourceGraphic" in2="effect3_dropShadow_318_4338" result="shape"/>
</filter>
<filter id="filter16_dd_318_4338" x="1" y="189.748" width="351.335" height="403.252" filterUnits="userSpaceOnUse" color-interpolation-filters="sRGB">
<feFlood flood-opacity="0" result="BackgroundImageFix"/>
<feColorMatrix in="SourceAlpha" type="matrix" values="0 0 0 0 0 0 0 0 0 0 0 0 0 0 0 0 0 0 127 0" result="hardAlpha"/>
<feOffset dy="10"/>
<feGaussianBlur stdDeviation="2"/>
<feComposite in2="hardAlpha" operator="out"/>
<feColorMatrix type="matrix" values="0 0 0 0 0 0 0 0 0 0 0 0 0 0 0 0 0 0 0.2 0"/>
<feBlend mode="normal" in2="BackgroundImageFix" result="effect1_dropShadow_318_4338"/>
<feColorMatrix in="SourceAlpha" type="matrix" values="0 0 0 0 0 0 0 0 0 0 0 0 0 0 0 0 0 0 127 0" result="hardAlpha"/>
<feOffset dx="10"/>
<feGaussianBlur stdDeviation="2"/>
<feComposite in2="hardAlpha" operator="out"/>
<feColorMatrix type="matrix" values="0 0 0 0 0 0 0 0 0 0 0 0 0 0 0 0 0 0 0.2 0"/>
<feBlend mode="normal" in2="effect1_dropShadow_318_4338" result="effect2_dropShadow_318_4338"/>
<feBlend mode="normal" in="SourceGraphic" in2="effect2_dropShadow_318_4338" result="shape"/>
</filter>
<filter id="filter17_ddd_318_4338" x="157.667" y="285.5" width="361.335" height="403.252" filterUnits="userSpaceOnUse" color-interpolation-filters="sRGB">
<feFlood flood-opacity="0" result="BackgroundImageFix"/>
<feColorMatrix in="SourceAlpha" type="matrix" values="0 0 0 0 0 0 0 0 0 0 0 0 0 0 0 0 0 0 127 0" result="hardAlpha"/>
<feOffset dy="10"/>
<feGaussianBlur stdDeviation="2"/>
<feComposite in2="hardAlpha" operator="out"/>
<feColorMatrix type="matrix" values="0 0 0 0 0 0 0 0 0 0 0 0 0 0 0 0 0 0 0.2 0"/>
<feBlend mode="normal" in2="BackgroundImageFix" result="effect1_dropShadow_318_4338"/>
<feColorMatrix in="SourceAlpha" type="matrix" values="0 0 0 0 0 0 0 0 0 0 0 0 0 0 0 0 0 0 127 0" result="hardAlpha"/>
<feOffset dx="-10"/>
<feGaussianBlur stdDeviation="2"/>
<feComposite in2="hardAlpha" operator="out"/>
<feColorMatrix type="matrix" values="0 0 0 0 0 0 0 0 0 0 0 0 0 0 0 0 0 0 0.2 0"/>
<feBlend mode="normal" in2="effect1_dropShadow_318_4338" result="effect2_dropShadow_318_4338"/>
<feColorMatrix in="SourceAlpha" type="matrix" values="0 0 0 0 0 0 0 0 0 0 0 0 0 0 0 0 0 0 127 0" result="hardAlpha"/>
<feOffset dx="10"/>
<feGaussianBlur stdDeviation="2"/>
<feComposite in2="hardAlpha" operator="out"/>
<feColorMatrix type="matrix" values="0 0 0 0 0 0 0 0 0 0 0 0 0 0 0 0 0 0 0.2 0"/>
<feBlend mode="normal" in2="effect2_dropShadow_318_4338" result="effect3_dropShadow_318_4338"/>
<feBlend mode="normal" in="SourceGraphic" in2="effect3_dropShadow_318_4338" result="shape"/>
</filter>
<filter id="filter18_ddd_318_4338" x="324.333" y="382" width="361.335" height="403.252" filterUnits="userSpaceOnUse" color-interpolation-filters="sRGB">
<feFlood flood-opacity="0" result="BackgroundImageFix"/>
<feColorMatrix in="SourceAlpha" type="matrix" values="0 0 0 0 0 0 0 0 0 0 0 0 0 0 0 0 0 0 127 0" result="hardAlpha"/>
<feOffset dy="10"/>
<feGaussianBlur stdDeviation="2"/>
<feComposite in2="hardAlpha" operator="out"/>
<feColorMatrix type="matrix" values="0 0 0 0 0 0 0 0 0 0 0 0 0 0 0 0 0 0 0.2 0"/>
<feBlend mode="normal" in2="BackgroundImageFix" result="effect1_dropShadow_318_4338"/>
<feColorMatrix in="SourceAlpha" type="matrix" values="0 0 0 0 0 0 0 0 0 0 0 0 0 0 0 0 0 0 127 0" result="hardAlpha"/>
<feOffset dx="-10"/>
<feGaussianBlur stdDeviation="2"/>
<feComposite in2="hardAlpha" operator="out"/>
<feColorMatrix type="matrix" values="0 0 0 0 0 0 0 0 0 0 0 0 0 0 0 0 0 0 0.2 0"/>
<feBlend mode="normal" in2="effect1_dropShadow_318_4338" result="effect2_dropShadow_318_4338"/>
<feColorMatrix in="SourceAlpha" type="matrix" values="0 0 0 0 0 0 0 0 0 0 0 0 0 0 0 0 0 0 127 0" result="hardAlpha"/>
<feOffset dx="10"/>
<feGaussianBlur stdDeviation="2"/>
<feComposite in2="hardAlpha" operator="out"/>
<feColorMatrix type="matrix" values="0 0 0 0 0 0 0 0 0 0 0 0 0 0 0 0 0 0 0.2 0"/>
<feBlend mode="normal" in2="effect2_dropShadow_318_4338" result="effect3_dropShadow_318_4338"/>
<feBlend mode="normal" in="SourceGraphic" in2="effect3_dropShadow_318_4338" result="shape"/>
</filter>
</defs>
</svg>
